<?xml version="1.0" encoding="UTF-8" standalone="no"?>
<!DOCTYPE svg PUBLIC "-//W3C//DTD SVG 20010904//EN"
              "http://www.w3.org/TR/2001/REC-SVG-20010904/DTD/svg10.dtd">

<svg xmlns="http://www.w3.org/2000/svg"
     width="11.3778in" height="45.5111in"
     viewBox="0 0 1024 4096">
  <path id="Selection"
        fill="#f6f8fa"
        d="M 320.08,642.07
           C 320.33,642.16 320.46,642.31 320.61,642.43
             321.82,643.42 323.19,644.02 324.77,644.05
             327.74,644.12 330.33,642.16 330.89,639.24
             331.36,636.79 330.56,634.75 328.52,633.29
             326.07,631.54 322.66,632.07 320.84,634.46
             319.65,636.03 319.38,637.79 320.01,639.66
             320.16,640.10 320.17,640.51 319.86,640.88
             319.61,641.20 319.26,641.32 318.86,641.27
             318.41,641.21 318.11,640.95 317.96,640.52
             317.74,639.89 317.60,639.24 317.56,638.58
             317.43,636.16 318.21,634.07 320.00,632.43
             321.62,630.94 323.56,630.27 325.77,630.49
             329.05,630.82 331.65,633.13 332.29,636.32
             333.08,640.28 330.64,644.04 326.70,644.77
             324.25,645.23 322.08,644.57 320.40,642.61
             320.31,642.51 320.24,642.39 320.17,642.28
             320.14,642.23 320.13,642.18 320.08,642.07
             320.08,642.07 320.08,642.07 320.08,642.07
             320.08,642.07 320.08,642.07 320.08,642.07 Z
           M 951.00,317.00
           C 956.64,317.76 965.15,317.86 970.00,321.00
             963.54,322.83 966.43,325.80 970.00,329.00
             970.00,329.00 961.00,332.00 961.00,332.00
             961.00,332.00 968.00,340.00 968.00,340.00
             968.00,340.00 961.00,337.00 961.00,337.00
             961.00,337.00 961.00,344.00 961.00,344.00
             961.00,344.00 960.00,338.00 960.00,338.00
             960.00,338.00 955.00,336.00 955.00,336.00
             955.00,336.00 956.00,340.00 956.00,340.00
             956.00,340.00 953.00,341.00 953.00,341.00
             953.00,341.00 952.00,335.00 952.00,335.00
             950.02,341.10 949.46,341.95 952.00,348.00
             952.00,348.00 946.00,347.00 946.00,347.00
             949.07,341.49 948.06,336.94 947.00,331.00
             947.00,331.00 942.00,330.00 942.00,330.00
             942.00,330.00 946.00,330.00 946.00,330.00
             946.00,330.00 944.00,323.00 944.00,323.00
             944.00,323.00 947.00,318.00 947.00,318.00
             947.00,318.00 951.00,317.00 951.00,317.00 Z
           M 994.00,323.00
           C 994.00,323.00 995.00,323.00 995.00,323.00
             995.00,323.00 994.00,324.00 994.00,324.00
             994.00,324.00 994.00,323.00 994.00,323.00 Z
           M 939.00,327.00
           C 939.00,327.00 943.00,324.00 943.00,324.00
             943.00,324.00 943.00,328.00 943.00,328.00
             943.00,328.00 939.00,327.00 939.00,327.00 Z
           M 1019.00,327.00
           C 1019.00,327.00 1018.00,327.00 1018.00,327.00
             1018.00,327.00 1019.00,328.00 1019.00,328.00
             1019.00,328.00 1019.00,327.00 1019.00,327.00 Z
           M 980.00,332.00
           C 980.00,332.00 979.00,332.00 979.00,332.00
             979.00,332.00 980.00,333.00 980.00,333.00
             980.00,333.00 980.00,332.00 980.00,332.00 Z
           M 982.00,334.00
           C 982.00,334.00 981.00,334.00 981.00,334.00
             981.00,334.00 982.00,335.00 982.00,335.00
             982.00,335.00 982.00,334.00 982.00,334.00 Z
           M 970.00,338.00
           C 970.00,338.00 976.00,340.00 976.00,340.00
             975.62,342.76 980.84,343.41 983.00,343.71
             983.00,343.71 1006.00,346.00 1006.00,346.00
             1006.00,346.00 969.00,344.00 969.00,344.00
             969.00,344.00 973.00,341.00 973.00,341.00
             973.00,341.00 970.00,338.00 970.00,338.00 Z
           M 923.00,341.00
           C 920.79,341.59 912.17,343.99 911.06,345.58
             909.23,348.23 911.79,353.51 913.00,356.00
             913.00,356.00 917.00,354.00 917.00,354.00
             917.00,354.00 921.00,355.00 921.00,355.00
             921.00,355.00 919.00,351.00 919.00,351.00
             919.00,351.00 923.00,341.00 923.00,341.00 Z
           M 924.00,343.00
           C 921.32,346.64 921.59,349.27 924.00,353.00
             924.00,353.00 924.00,343.00 924.00,343.00 Z
           M 929.00,346.00
           C 930.46,341.96 932.00,342.24 936.00,342.00
             936.00,342.00 935.00,346.00 935.00,346.00
             932.77,343.62 931.79,344.78 929.00,346.00 Z
           M 916.00,347.00
           C 916.00,347.00 920.00,344.00 920.00,344.00
             920.00,344.00 920.00,345.00 920.00,345.00
             920.00,345.00 918.00,347.00 918.00,347.00
             918.00,347.00 919.00,347.00 919.00,347.00
             919.00,347.00 920.00,349.00 920.00,349.00
             920.00,349.00 916.00,347.00 916.00,347.00 Z
           M 909.00,346.00
           C 903.19,349.31 906.17,353.85 908.00,359.00
             908.00,359.00 913.00,358.00 913.00,358.00
             913.00,358.00 907.00,349.00 907.00,349.00
             907.00,349.00 909.00,346.00 909.00,346.00 Z
           M 955.00,346.00
           C 955.00,346.00 963.00,346.00 963.00,346.00
             963.00,346.00 955.00,346.00 955.00,346.00 Z
           M 969.00,346.00
           C 969.00,346.00 981.00,349.00 981.00,349.00
             976.18,348.89 973.19,348.56 969.00,346.00 Z
           M 912.00,347.00
           C 912.00,347.00 916.00,352.00 916.00,352.00
             916.00,352.00 912.00,347.00 912.00,347.00 Z
           M 991.00,350.00
           C 991.00,350.00 997.00,351.00 997.00,351.00
             997.00,351.00 991.00,350.00 991.00,350.00 Z
           M 899.00,355.00
           C 894.79,349.39 889.98,352.36 888.00,358.00
             888.00,358.00 899.00,355.00 899.00,355.00 Z
           M 1000.00,352.00
           C 1000.00,352.00 1005.00,353.00 1005.00,353.00
             1005.00,353.00 1000.00,352.00 1000.00,352.00 Z
           M 969.00,354.00
           C 969.00,354.00 955.00,354.00 955.00,354.00
             955.00,354.00 954.00,363.00 954.00,363.00
             953.86,352.55 948.71,354.44 940.00,356.00
             940.00,356.00 944.00,371.00 944.00,371.00
             954.53,370.99 953.76,370.92 956.00,364.00
             956.00,364.00 956.00,370.00 956.00,370.00
             956.00,370.00 969.00,370.00 969.00,370.00
             969.00,370.00 969.00,354.00 969.00,354.00 Z
           M 984.00,354.00
           C 984.00,354.00 970.00,354.00 970.00,354.00
             970.00,354.00 970.00,370.00 970.00,370.00
             970.00,370.00 983.00,371.00 983.00,371.00
             983.00,371.00 984.00,354.00 984.00,354.00 Z
           M 1006.00,353.00
           C 1006.00,353.00 1016.00,354.00 1016.00,354.00
             1016.00,354.00 1006.00,353.00 1006.00,353.00 Z
           M 1002.00,356.00
           C 1002.00,356.00 984.79,355.00 984.79,355.00
             984.54,358.46 983.11,367.58 984.79,370.58
             986.01,373.54 993.61,375.88 996.16,373.39
             997.90,371.69 1001.32,358.98 1002.00,356.00 Z
           M 931.00,376.00
           C 933.32,375.23 940.73,373.32 941.89,371.44
             943.61,368.65 939.86,358.78 936.78,357.69
             934.12,356.74 927.66,359.02 925.00,360.00
             925.00,360.00 927.00,369.00 927.00,369.00
             927.00,369.00 924.00,361.00 924.00,361.00
             921.24,361.56 913.52,363.00 912.13,365.51
             910.53,368.39 916.41,377.20 918.00,380.00
             918.00,380.00 930.00,376.00 930.00,376.00
             930.00,376.00 930.00,373.00 930.00,373.00
             930.00,373.00 931.00,376.00 931.00,376.00 Z
           M 1016.00,360.00
           C 1016.00,360.00 1003.00,357.00 1003.00,357.00
             1003.00,357.00 997.00,376.00 997.00,376.00
             997.00,376.00 1007.00,381.00 1007.00,381.00
             1007.00,381.00 997.56,379.13 997.56,379.13
             997.56,379.13 994.21,388.00 994.21,388.00
             994.21,388.00 987.38,412.38 987.38,412.38
             987.38,412.38 977.31,452.08 977.31,452.08
             977.31,452.08 1003.55,396.00 1003.55,396.00
             1003.55,396.00 1016.00,360.00 1016.00,360.00 Z
           M 905.00,387.00
           C 907.70,385.83 913.60,383.41 914.85,380.67
             916.37,377.32 908.25,363.85 904.79,363.00
             902.41,362.41 892.42,366.15 891.39,368.43
             890.62,370.13 891.45,371.46 892.00,373.00
             892.00,373.00 906.00,368.00 906.00,368.00
             906.00,368.00 894.00,373.00 894.00,373.00
             894.00,373.00 905.00,387.00 905.00,387.00 Z
           M 886.00,368.00
           C 880.09,358.70 872.45,364.62 875.00,374.00
             875.00,374.00 886.00,368.00 886.00,368.00 Z
           M 896.00,364.00
           C 896.00,364.00 895.00,364.00 895.00,364.00
             895.00,364.00 896.00,365.00 896.00,365.00
             896.00,365.00 896.00,364.00 896.00,364.00 Z
           M 876.00,368.00
           C 876.00,368.00 881.00,364.00 881.00,364.00
             881.00,364.00 876.00,368.00 876.00,368.00 Z
           M 867.00,368.00
           C 867.00,368.00 866.00,368.00 866.00,368.00
             866.00,368.00 867.00,369.00 867.00,369.00
             867.00,369.00 867.00,368.00 867.00,368.00 Z
           M 872.00,368.00
           C 872.00,368.00 871.00,368.00 871.00,368.00
             871.00,368.00 872.00,369.00 872.00,369.00
             872.00,369.00 872.00,368.00 872.00,368.00 Z
           M 871.00,369.00
           C 871.00,369.00 870.00,369.00 870.00,369.00
             870.00,369.00 871.00,370.00 871.00,370.00
             871.00,370.00 871.00,369.00 871.00,369.00 Z
           M 870.00,370.00
           C 870.00,370.00 857.00,382.00 857.00,382.00
             857.00,382.00 860.00,385.00 860.00,385.00
             864.63,380.26 868.60,376.69 870.00,370.00 Z
           M 888.00,370.00
           C 882.00,370.97 878.84,372.29 876.00,378.00
             881.46,379.28 883.49,378.07 888.00,375.00
             884.05,378.19 883.02,379.04 878.00,380.00
             880.23,383.61 888.96,393.00 893.00,393.75
             895.96,394.31 901.80,390.02 901.80,386.91
             901.80,384.77 899.36,382.45 897.98,381.00
             893.96,376.77 891.54,374.95 888.00,370.00 Z
           M 873.00,371.00
           C 873.00,371.00 871.00,371.00 871.00,371.00
             871.00,371.00 873.00,376.00 873.00,376.00
             873.00,376.00 873.00,371.00 873.00,371.00 Z
           M 969.00,371.00
           C 966.40,371.00 959.66,370.39 958.06,372.60
             956.58,374.65 958.38,380.46 958.71,383.00
             959.92,392.29 969.15,443.18 969.15,452.54
             969.15,452.54 975.77,452.15 975.77,452.15
             975.77,452.15 995.00,376.00 995.00,376.00
             995.00,376.00 984.00,373.00 984.00,373.00
             984.00,373.00 973.92,453.38 973.92,453.38
             973.92,453.38 982.00,372.00 982.00,372.00
             982.00,372.00 971.00,371.00 971.00,371.00
             967.45,383.50 974.23,441.15 971.46,453.77
             971.46,453.77 969.00,371.00 969.00,371.00 Z
           M 956.00,372.00
           C 953.38,372.00 947.74,371.53 946.12,373.74
             944.39,375.77 945.82,381.52 946.12,384.00
             946.12,384.00 968.23,451.38 968.23,451.38
             968.23,451.38 963.15,411.69 963.15,411.69
             963.15,411.69 958.69,389.23 958.69,389.23
             958.69,389.23 956.00,372.00 956.00,372.00 Z
           M 1022.00,371.00
           C 1022.26,375.00 1019.43,378.95 1017.00,382.00
             1017.00,382.00 1022.00,371.00 1022.00,371.00 Z
           M 956.38,417.85
           C 956.38,417.85 946.81,393.99 945.25,385.00
             944.83,382.60 944.26,376.46 942.27,375.03
             939.87,373.32 934.36,375.96 932.00,377.00
             932.00,377.00 964.85,449.15 964.85,449.15
             964.85,449.15 937.77,392.31 937.77,392.31
             937.77,392.31 931.00,377.00 931.00,377.00
             931.00,377.00 919.00,381.00 919.00,381.00
             920.09,384.45 949.30,430.52 951.38,433.15
             954.27,436.80 964.88,454.52 967.38,451.46
             967.38,451.46 956.38,417.85 956.38,417.85 Z
           M 872.00,377.00
           C 872.00,377.00 869.00,376.00 869.00,376.00
             869.00,376.00 862.00,389.00 862.00,389.00
             862.00,389.00 875.00,384.00 875.00,384.00
             875.00,384.00 862.00,390.00 862.00,390.00
             866.32,395.10 878.59,402.97 885.00,405.00
             885.00,405.00 892.00,395.00 892.00,395.00
             892.00,395.00 874.00,380.86 874.00,380.86
             874.00,380.86 870.00,380.86 870.00,380.86
             870.00,380.86 872.00,377.00 872.00,377.00 Z
           M 918.00,382.00
           C 918.00,382.00 906.00,387.00 906.00,387.00
             906.00,387.00 919.58,407.00 919.58,407.00
             919.58,407.00 959.85,446.31 959.85,446.31
             959.85,446.31 937.69,415.00 937.69,415.00
             937.69,415.00 918.00,382.00 918.00,382.00 Z
           M 855.00,387.00
           C 855.00,387.00 849.00,385.00 849.00,385.00
             849.00,385.00 847.00,393.00 847.00,393.00
             847.00,393.00 852.00,391.00 852.00,391.00
             852.00,391.00 852.00,395.00 852.00,395.00
             852.00,395.00 855.00,387.00 855.00,387.00 Z
           M 865.00,384.00
           C 865.00,384.00 866.00,384.00 866.00,384.00
             866.00,384.00 865.00,385.00 865.00,385.00
             865.00,385.00 865.00,384.00 865.00,384.00 Z
           M 862.00,389.00
           C 862.00,389.00 861.00,389.00 861.00,389.00
             861.00,389.00 862.00,390.00 862.00,390.00
             862.00,390.00 862.00,389.00 862.00,389.00 Z
           M 904.00,389.00
           C 901.69,390.30 896.20,393.05 896.20,396.09
             896.19,398.69 900.64,402.31 902.42,404.17
             905.48,407.36 960.78,451.49 964.69,452.31
             966.90,453.12 926.71,419.85 928.92,419.69
             923.31,413.08 909.62,395.11 904.00,389.00 Z
           M 859.00,390.00
           C 854.62,392.14 853.78,393.19 853.00,398.00
             853.00,398.00 858.00,394.00 858.00,394.00
             855.50,398.55 854.44,399.38 850.00,402.00
             850.00,402.00 852.00,396.00 852.00,396.00
             845.84,401.62 849.27,404.52 855.00,408.30
             861.18,412.39 867.74,416.30 875.00,418.00
             875.00,418.00 882.00,406.00 882.00,406.00
             875.62,403.15 863.83,394.99 859.00,390.00 Z
           M 849.00,394.00
           C 849.00,394.00 845.00,394.00 845.00,394.00
             842.92,397.55 842.40,397.87 843.00,402.00
             843.00,402.00 846.00,401.00 846.00,401.00
             846.00,401.00 846.00,396.00 846.00,396.00
             846.00,396.00 848.00,398.00 848.00,398.00
             848.00,398.00 849.00,394.00 849.00,394.00 Z
           M 915.00,418.00
           C 901.14,408.03 895.58,389.96 886.87,403.02
             885.93,404.43 885.60,405.47 885.00,407.00
             885.00,407.00 953.69,449.85 953.69,449.85
             947.32,446.97 896.60,416.20 891.00,412.29
             888.90,410.83 885.90,408.26 883.17,409.25
             880.53,410.20 876.55,416.55 875.00,419.00
             875.00,419.00 923.62,440.15 923.62,440.15
             923.62,440.15 958.46,454.08 958.46,454.08
             958.46,454.08 962.69,453.54 962.69,453.54
             962.69,453.54 915.00,418.00 915.00,418.00 Z
           M 842.00,403.00
           C 842.00,403.00 840.00,403.00 840.00,403.00
             837.02,409.42 836.17,409.72 836.00,417.00
             840.54,413.32 842.62,408.87 842.00,403.00 Z
           M 848.00,405.00
           C 848.00,405.00 845.00,414.00 845.00,414.00
             845.00,414.00 839.00,418.00 839.00,418.00
             845.24,422.46 849.39,423.34 856.00,426.48
             863.32,429.96 950.17,456.45 958.31,455.31
             961.69,454.83 894.00,430.00 894.00,430.00
             894.00,430.00 874.00,420.00 874.00,420.00
             874.00,420.00 868.00,430.00 868.00,430.00
             868.00,430.00 873.00,420.00 873.00,420.00
             873.00,420.00 848.00,405.00 848.00,405.00 Z
           M 844.00,408.00
           C 844.00,408.00 841.00,413.00 841.00,413.00
             841.00,413.00 844.00,408.00 844.00,408.00 Z
           M 830.00,419.00
           C 830.00,419.00 827.00,428.00 827.00,428.00
             827.00,428.00 829.00,428.00 829.00,428.00
             829.00,428.00 830.00,419.00 830.00,419.00 Z
           M 836.00,419.00
           C 836.00,419.00 834.00,419.00 834.00,419.00
             833.36,422.17 831.91,427.15 832.32,430.27
             832.89,434.59 836.38,435.60 840.00,436.95
             847.17,439.62 853.37,440.82 860.00,445.00
             860.00,445.00 831.00,436.00 831.00,436.00
             831.00,436.00 827.00,451.00 827.00,451.00
             827.00,451.00 860.00,457.00 860.00,457.00
             860.00,457.00 862.95,442.00 862.95,442.00
             862.95,442.00 866.00,431.54 866.00,431.54
             866.00,431.54 857.00,428.22 857.00,428.22
             857.00,428.22 838.00,419.00 838.00,419.00
             838.00,419.00 833.00,428.00 833.00,428.00
             833.00,428.00 836.00,419.00 836.00,419.00 Z
           M 832.00,429.00
           C 832.00,429.00 831.00,429.00 831.00,429.00
             831.00,429.00 832.00,430.00 832.00,430.00
             832.00,430.00 832.00,429.00 832.00,429.00 Z
           M 952.77,455.85
           C 952.77,455.85 867.23,432.69 867.23,432.69
             867.23,432.69 864.00,444.00 864.00,444.00
             872.57,446.50 949.83,467.67 952.77,455.85 Z
           M 829.00,435.00
           C 827.12,438.17 825.98,441.36 827.00,445.00
             827.00,445.00 829.00,435.00 829.00,435.00 Z
           M 878.00,449.00
           C 878.00,449.00 863.00,445.00 863.00,445.00
             863.00,445.00 861.00,457.00 861.00,457.00
             861.00,457.00 878.00,460.00 878.00,460.00
             878.00,460.00 878.00,449.00 878.00,449.00 Z
           M 825.00,448.00
           C 825.00,448.00 824.00,448.00 824.00,448.00
             824.00,448.00 825.00,449.00 825.00,449.00
             825.00,449.00 825.00,448.00 825.00,448.00 Z
           M 857.00,472.00
           C 857.47,469.41 859.43,461.79 857.97,459.72
             856.74,458.00 852.97,457.43 851.00,457.00
             851.00,457.00 835.00,453.19 835.00,453.19
             833.00,452.90 829.55,451.74 827.72,453.19
             825.09,454.90 824.15,466.65 824.00,470.00
             824.00,470.00 857.00,472.00 857.00,472.00 Z
           M 946.15,461.69
           C 946.15,461.69 902.46,454.38 902.46,454.38
             902.46,454.38 879.85,449.85 879.85,449.85
             879.85,449.85 880.00,461.00 880.00,461.00
             880.00,461.00 925.62,459.31 944.92,470.23
             935.07,465.96 919.15,465.08 919.15,465.08
             919.15,465.08 890.28,462.83 880.00,462.00
             880.00,462.00 880.00,472.92 880.00,472.92
             880.00,472.92 893.00,472.92 893.00,472.92
             893.00,472.92 944.69,472.15 944.69,472.15
             928.71,475.76 897.56,474.00 881.00,474.00
             881.00,474.00 880.00,479.00 880.00,479.00
             880.00,479.00 878.40,475.02 878.40,475.02
             878.40,475.02 858.00,474.00 858.00,474.00
             857.26,479.62 856.39,481.31 858.00,487.00
             858.00,487.00 881.00,485.00 881.00,485.00
             881.00,485.00 882.00,480.00 882.00,480.00
             882.00,480.00 882.00,484.00 882.00,484.00
             887.77,484.00 900.78,483.27 906.00,481.65
             911.98,479.81 938.78,473.63 944.85,475.85
             935.41,476.31 911.56,481.46 903.00,483.96
             903.00,483.96 883.00,486.00 883.00,486.00
             883.00,486.00 883.00,491.00 883.00,491.00
             883.00,491.00 881.41,488.02 881.41,488.02
             881.41,488.02 873.00,487.00 873.00,487.00
             873.00,487.00 857.00,488.00 857.00,488.00
             857.00,488.00 859.00,501.00 859.00,501.00
             859.00,501.00 884.00,497.00 884.00,497.00
             884.00,497.00 885.00,492.00 885.00,492.00
             885.00,492.00 885.00,496.00 885.00,496.00
             888.03,495.75 895.18,494.80 897.91,493.87
             897.91,493.87 906.01,489.85 906.01,489.85
             914.70,486.53 920.76,485.46 930.00,484.98
             933.75,484.76 935.15,484.22 939.00,484.98
             926.34,485.58 914.02,488.00 902.00,492.00
             902.00,492.00 909.00,500.00 909.00,500.00
             909.00,500.00 902.00,495.32 902.00,495.32
             902.00,495.32 887.00,497.00 887.00,497.00
             887.00,497.00 890.00,513.00 890.00,513.00
             889.31,509.64 887.15,500.95 884.35,498.90
             882.36,497.61 879.21,498.39 877.00,498.90
             877.00,498.90 859.00,502.00 859.00,502.00
             859.38,509.68 863.49,520.15 867.00,527.00
             874.26,524.93 880.56,520.42 887.00,516.60
             887.00,516.60 904.96,505.96 904.96,505.96
             912.26,500.60 915.90,495.48 926.00,494.00
             922.20,495.37 910.74,499.51 910.61,504.09
             910.55,506.35 912.78,509.19 914.00,511.00
             923.54,506.96 941.95,493.49 946.00,484.00
             946.00,484.00 927.00,492.00 927.00,492.00
             933.00,489.72 946.28,483.65 949.23,478.08
             946.15,473.23 944.62,474.38 946.15,461.69 Z
           M 822.00,454.00
           C 820.50,457.79 821.13,461.02 820.96,465.00
             820.63,472.50 818.68,477.24 822.00,485.00
             822.00,485.00 822.00,454.00 822.00,454.00 Z
           M 813.00,455.00
           C 813.00,455.00 812.00,455.00 812.00,455.00
             812.00,455.00 813.00,456.00 813.00,456.00
             813.00,456.00 813.00,455.00 813.00,455.00 Z
           M 802.00,456.00
           C 802.00,456.00 801.00,462.00 801.00,462.00
             801.00,462.00 808.00,462.00 808.00,462.00
             808.00,462.00 802.00,456.00 802.00,456.00 Z
           M 814.00,456.00
           C 814.00,456.00 813.00,456.00 813.00,456.00
             813.00,456.00 814.00,457.00 814.00,457.00
             814.00,457.00 814.00,456.00 814.00,456.00 Z
           M 825.00,456.00
           C 825.00,456.00 824.00,456.00 824.00,456.00
             824.00,456.00 825.00,457.00 825.00,457.00
             825.00,457.00 825.00,456.00 825.00,456.00 Z
           M 879.00,473.00
           C 879.00,470.58 879.40,464.40 877.98,462.60
             876.37,460.56 862.80,458.70 860.93,460.64
             859.37,462.26 858.46,469.50 858.00,472.00
             858.00,472.00 879.00,473.00 879.00,473.00 Z
           M 396.00,459.00
           C 396.00,459.00 398.00,460.00 398.00,460.00
             398.00,460.00 395.00,462.00 395.00,462.00
             395.00,462.00 396.00,459.00 396.00,459.00 Z
           M 948.00,460.00
           C 948.00,460.00 953.31,460.85 953.31,460.85
             953.31,460.85 981.38,459.62 981.38,459.62
             978.31,444.92 951.61,460.70 948.00,460.00 Z
           M 980.85,473.23
           C 981.02,471.66 981.86,464.30 981.15,462.69
             980.02,459.03 959.72,461.61 956.46,462.15
             954.71,462.44 947.57,465.63 946.31,466.54
             951.61,469.99 974.41,472.05 980.85,473.23 Z
           M 980.85,475.38
           C 980.85,475.38 952.31,470.23 952.31,470.23
             952.31,470.23 950.46,469.85 950.46,469.85
             942.89,466.34 948.22,473.21 950.54,476.38
             952.69,479.30 970.98,480.73 974.31,479.31
             976.06,478.57 980.32,476.91 980.85,475.38 Z
           M 816.00,467.00
           C 813.72,470.91 814.76,480.62 816.00,485.00
             816.00,485.00 818.00,485.00 818.00,485.00
             819.64,479.24 819.69,471.96 816.00,467.00 Z
           M 813.00,468.00
           C 813.00,468.00 809.00,468.00 809.00,468.00
             809.00,468.00 809.00,484.00 809.00,484.00
             816.64,482.66 813.09,477.58 813.00,468.00 Z
           M 857.00,474.00
           C 857.00,474.00 824.00,471.00 824.00,471.00
             824.00,471.00 825.00,489.00 825.00,489.00
             825.00,489.00 856.00,487.00 856.00,487.00
             856.00,487.00 857.00,474.00 857.00,474.00 Z
           M 968.00,484.00
           C 968.00,484.00 961.85,501.00 961.85,501.00
             957.31,511.40 951.64,520.40 950.00,532.00
             950.00,532.00 965.00,533.00 965.00,533.00
             965.00,533.00 966.00,500.00 966.00,500.00
             966.00,500.00 966.00,533.00 966.00,533.00
             966.00,533.00 988.00,532.00 988.00,532.00
             988.00,532.00 980.00,512.00 980.00,512.00
             980.00,512.00 972.00,493.00 972.00,493.00
             972.00,493.00 973.00,506.00 973.00,506.00
             973.00,506.00 968.00,484.00 968.00,484.00 Z
           M 949.00,485.00
           C 949.00,485.00 942.48,492.72 942.48,492.72
             942.48,492.72 933.00,502.83 933.00,502.83
             933.00,502.83 908.00,528.00 908.00,528.00
             908.00,528.00 887.00,549.00 887.00,549.00
             887.00,549.00 898.00,562.00 898.00,562.00
             898.00,562.00 915.74,540.00 915.74,540.00
             915.74,540.00 923.22,528.00 923.22,528.00
             923.22,528.00 920.00,519.00 920.00,519.00
             920.00,519.00 924.00,526.00 924.00,526.00
             924.00,526.00 926.00,526.00 926.00,526.00
             926.00,526.00 942.30,499.00 942.30,499.00
             942.30,499.00 949.00,485.00 949.00,485.00 Z
           M 982.00,485.00
           C 980.80,489.43 983.68,493.98 985.42,498.00
             985.42,498.00 1000.69,529.00 1000.69,529.00
             1003.28,533.78 1004.53,539.15 1010.00,541.00
             1008.48,532.91 1002.93,525.07 998.87,518.00
             992.67,507.20 986.86,496.47 982.00,485.00 Z
           M 956.00,486.00
           C 956.00,486.00 940.56,509.00 940.56,509.00
             940.56,509.00 928.00,529.00 928.00,529.00
             928.00,529.00 933.00,533.00 933.00,533.00
             931.39,532.13 929.09,530.57 927.18,530.90
             924.91,531.29 923.22,534.29 921.96,536.00
             921.96,536.00 913.00,547.00 913.00,547.00
             913.00,547.00 887.57,578.00 887.57,578.00
             885.08,580.98 879.20,586.82 879.53,590.90
             879.70,592.97 883.55,596.73 885.00,599.00
             889.07,594.06 889.83,593.48 890.00,587.00
             890.00,587.00 894.00,589.00 894.00,589.00
             894.00,589.00 906.37,567.00 906.37,567.00
             906.37,567.00 915.27,550.16 915.27,550.16
             918.95,545.38 921.30,549.72 925.39,545.68
             925.39,545.68 929.51,540.00 929.51,540.00
             939.07,527.23 940.88,521.04 947.31,507.00
             949.96,501.22 954.90,491.87 956.00,486.00 Z
           M 856.00,488.00
           C 856.00,488.00 826.00,490.00 826.00,490.00
             826.05,505.26 829.33,513.21 834.58,527.00
             834.58,527.00 840.32,541.00 840.32,541.00
             840.32,541.00 850.00,557.00 850.00,557.00
             850.00,557.00 875.00,539.00 875.00,539.00
             866.66,528.56 866.51,527.54 861.00,516.00
             854.42,518.14 840.58,521.98 834.00,521.00
             834.00,521.00 860.00,516.00 860.00,516.00
             860.00,516.00 859.24,510.00 859.24,510.00
             859.24,510.00 856.30,504.04 856.30,504.04
             856.30,504.04 848.00,504.04 848.00,504.04
             848.00,504.04 830.00,506.00 830.00,506.00
             830.00,506.00 857.00,502.00 857.00,502.00
             857.00,502.00 856.00,488.00 856.00,488.00 Z
           M 823.00,489.00
           C 823.00,489.00 821.82,510.00 821.82,510.00
             821.82,510.00 826.00,516.00 826.00,516.00
             826.00,516.00 823.00,489.00 823.00,489.00 Z
           M 645.00,494.00
           C 645.00,494.00 647.00,491.00 647.00,491.00
             647.00,491.00 646.00,498.00 646.00,498.00
             646.00,498.00 650.00,502.00 650.00,502.00
             650.00,502.00 639.00,503.00 639.00,503.00
             639.00,503.00 642.00,492.00 642.00,492.00
             642.00,492.00 643.00,492.00 643.00,492.00
             643.00,492.00 645.00,494.00 645.00,494.00 Z
           M 818.00,498.00
           C 812.46,501.78 814.72,504.97 815.00,511.00
             815.00,511.00 818.00,512.00 818.00,512.00
             814.38,513.80 817.81,515.28 820.00,516.00
             820.00,516.00 818.00,498.00 818.00,498.00 Z
           M 935.00,499.00
           C 927.71,501.85 920.94,508.56 914.72,513.26
             914.72,513.26 904.00,519.78 904.00,519.78
             904.00,519.78 878.00,539.00 878.00,539.00
             879.34,542.42 882.35,548.45 887.00,546.83
             889.67,545.91 898.72,536.51 901.35,533.88
             901.35,533.88 935.00,499.00 935.00,499.00 Z
           M 813.00,500.00
           C 813.00,500.00 809.00,500.00 809.00,500.00
             809.00,500.00 809.00,516.00 809.00,516.00
             809.00,516.00 814.00,516.00 814.00,516.00
             814.00,516.00 813.00,500.00 813.00,500.00 Z
           M 821.00,504.00
           C 821.00,504.00 820.00,504.00 820.00,504.00
             820.00,504.00 821.00,505.00 821.00,505.00
             821.00,505.00 821.00,504.00 821.00,504.00 Z
           M 909.00,505.00
           C 905.93,506.88 895.54,512.06 894.82,515.18
             894.33,517.32 896.07,520.13 897.00,522.00
             897.00,522.00 914.00,513.00 914.00,513.00
             914.00,513.00 909.00,505.00 909.00,505.00 Z
           M 897.00,524.00
           C 896.18,521.43 894.70,517.24 891.82,516.32
             889.53,515.59 886.86,517.65 885.00,518.78
             885.00,518.78 869.00,528.00 869.00,528.00
             870.88,532.84 873.02,535.68 877.00,539.00
             877.00,539.00 897.00,524.00 897.00,524.00 Z
           M 975.00,515.00
           C 976.35,518.41 976.35,521.59 975.00,525.00
             975.00,525.00 975.00,515.00 975.00,515.00 Z
           M 14.00,517.00
           C 14.00,517.00 5.00,518.00 5.00,518.00
             6.17,526.29 8.86,534.32 12.15,542.00
             13.78,545.80 14.40,548.68 18.00,551.00
             18.00,551.00 14.00,517.00 14.00,517.00 Z
           M 22.00,518.00
           C 22.00,518.00 15.00,517.00 15.00,517.00
             15.00,517.00 16.91,536.00 16.91,536.00
             17.31,541.41 16.90,546.69 22.00,550.00
             21.00,544.44 20.70,531.48 24.00,527.00
             22.40,533.57 21.45,545.65 26.00,551.00
             26.00,551.00 27.00,544.00 27.00,544.00
             27.00,544.00 27.00,551.00 27.00,551.00
             30.38,549.69 30.60,548.46 31.52,545.00
             32.55,541.16 34.99,525.61 33.43,522.42
             32.58,520.70 31.56,520.63 30.00,520.00
             30.00,520.00 27.00,542.00 27.00,542.00
             27.00,542.00 27.99,527.00 27.99,527.00
             27.99,527.00 27.99,520.42 27.99,520.42
             27.99,520.42 24.00,518.00 24.00,518.00
             24.00,518.00 22.00,525.00 22.00,525.00
             22.00,525.00 22.00,518.00 22.00,518.00 Z
           M 53.00,518.00
           C 53.00,518.00 54.00,518.00 54.00,518.00
             54.00,518.00 53.00,519.00 53.00,519.00
             53.00,519.00 53.00,518.00 53.00,518.00 Z
           M 677.00,520.00
           C 677.00,520.00 676.00,520.00 676.00,520.00
             676.00,520.00 677.00,521.00 677.00,521.00
             677.00,521.00 677.00,520.00 677.00,520.00 Z
           M 45.00,526.00
           C 45.00,526.00 35.00,522.00 35.00,522.00
             35.00,522.00 34.00,544.00 34.00,544.00
             34.00,544.00 45.00,526.00 45.00,526.00 Z
           M 831.00,525.00
           C 829.17,529.81 832.72,539.32 837.00,542.00
             837.00,542.00 831.00,525.00 831.00,525.00 Z
           M 47.00,527.00
           C 47.00,527.00 45.00,527.00 45.00,527.00
             45.00,527.00 31.00,552.00 31.00,552.00
             36.86,548.63 46.24,533.76 47.00,527.00 Z
           M 162.00,526.00
           C 162.00,526.00 165.00,526.00 165.00,526.00
             165.05,531.39 166.32,535.92 164.00,541.00
             161.35,534.73 162.00,532.59 162.00,526.00 Z
           M 827.00,527.00
           C 827.00,527.00 826.00,544.00 826.00,544.00
             826.00,544.00 823.00,531.00 823.00,531.00
             823.00,531.00 823.00,535.00 823.00,535.00
             823.00,535.00 821.00,535.00 821.00,535.00
             821.00,535.00 820.00,531.00 820.00,531.00
             820.00,531.00 821.00,548.00 821.00,548.00
             821.00,548.00 828.00,545.00 828.00,545.00
             828.00,545.00 829.00,549.00 829.00,549.00
             830.55,548.40 831.81,548.20 832.74,546.58
             834.90,542.82 828.93,530.72 827.00,527.00 Z
           M 40.00,527.00
           C 40.00,527.00 37.00,534.00 37.00,534.00
             37.00,534.00 40.00,527.00 40.00,527.00 Z
           M 57.00,527.00
           C 57.00,527.00 58.00,527.00 58.00,527.00
             58.00,527.00 57.00,528.00 57.00,528.00
             57.00,528.00 57.00,527.00 57.00,527.00 Z
           M 850.00,536.00
           C 853.96,533.74 860.46,529.39 865.00,530.00
             860.86,532.36 854.81,536.33 850.00,536.00 Z
           M 57.00,531.00
           C 49.02,537.00 42.03,547.95 41.00,558.00
             44.64,554.80 50.33,546.73 51.00,542.00
             56.05,539.39 57.94,536.70 57.00,531.00 Z
           M 62.00,533.00
           C 62.00,533.00 63.00,533.00 63.00,533.00
             63.00,533.00 62.00,534.00 62.00,534.00
             62.00,534.00 62.00,533.00 62.00,533.00 Z
           M 36.00,535.00
           C 36.00,535.00 37.00,535.00 37.00,535.00
             37.00,535.00 36.00,536.00 36.00,536.00
             36.00,536.00 36.00,535.00 36.00,535.00 Z
           M 60.00,536.00
           C 56.81,539.16 55.70,540.51 55.00,545.00
             55.00,545.00 59.00,546.00 59.00,546.00
             61.45,541.09 63.31,541.23 60.00,536.00 Z
           M 65.00,535.00
           C 65.00,535.00 66.00,535.00 66.00,535.00
             66.00,535.00 65.00,536.00 65.00,536.00
             65.00,536.00 65.00,535.00 65.00,535.00 Z
           M 904.00,535.00
           C 904.00,535.00 912.00,540.00 912.00,540.00
             912.00,540.00 904.00,535.00 904.00,535.00 Z
           M 0.00,536.00
           C 0.00,536.00 1.00,536.00 1.00,536.00
             1.00,536.00 0.00,537.00 0.00,537.00
             0.00,537.00 0.00,536.00 0.00,536.00 Z
           M 1.00,538.00
           C 1.00,538.00 2.00,538.00 2.00,538.00
             2.00,538.00 1.00,539.00 1.00,539.00
             1.00,539.00 1.00,538.00 1.00,538.00 Z
           M 2.00,540.00
           C 5.25,542.71 9.23,546.51 9.00,551.00
             9.00,551.00 2.00,540.00 2.00,540.00 Z
           M 875.00,541.90
           C 870.64,543.46 863.22,549.15 859.00,552.00
             857.18,553.23 854.04,555.15 853.13,557.18
             851.41,561.03 858.95,571.79 862.95,570.66
             864.91,570.11 868.49,565.61 870.04,564.00
             879.04,554.61 887.81,549.91 878.98,543.33
             876.94,541.81 877.15,542.27 875.00,541.90 Z
           M 64.00,542.00
           C 64.00,542.00 63.00,546.00 63.00,546.00
             58.75,546.00 58.32,548.07 55.61,551.00
             51.39,555.56 47.73,557.27 45.00,563.00
             59.50,556.01 57.84,552.40 67.00,547.00
             67.00,547.00 64.00,542.00 64.00,542.00 Z
           M 822.00,542.00
           C 822.00,542.00 823.00,542.00 823.00,542.00
             823.00,542.00 822.00,543.00 822.00,543.00
             822.00,543.00 822.00,542.00 822.00,542.00 Z
           M 54.00,544.00
           C 54.00,544.00 43.00,560.00 43.00,560.00
             48.77,557.28 53.43,552.22 57.00,547.00
             57.00,547.00 54.00,544.00 54.00,544.00 Z
           M 839.00,544.00
           C 838.13,546.73 838.42,546.95 841.00,548.00
             841.00,548.00 839.00,544.00 839.00,544.00 Z
           M 4.00,546.00
           C 4.00,546.00 5.00,546.00 5.00,546.00
             5.00,546.00 4.00,547.00 4.00,547.00
             4.00,547.00 4.00,546.00 4.00,546.00 Z
           M 47.00,546.00
           C 47.00,546.00 48.00,546.00 48.00,546.00
             48.00,546.00 47.00,547.00 47.00,547.00
             47.00,547.00 47.00,546.00 47.00,546.00 Z
           M 68.00,548.00
           C 68.00,548.00 57.91,556.11 57.91,556.11
             57.91,556.11 47.00,565.00 47.00,565.00
             47.00,565.00 72.00,557.00 72.00,557.00
             72.00,557.00 68.00,548.00 68.00,548.00 Z
           M 944.00,549.00
           C 942.35,549.50 939.78,550.15 938.41,551.14
             936.16,552.77 931.26,563.00 929.75,566.00
             924.46,576.57 911.96,600.62 909.00,611.00
             913.80,608.46 916.70,606.56 922.00,604.89
             925.21,603.87 932.25,602.41 934.49,600.30
             937.36,597.60 938.05,589.91 938.80,586.00
             938.80,586.00 944.00,549.00 944.00,549.00 Z
           M 886.00,550.00
           C 880.51,554.52 866.15,569.13 863.00,575.00
             863.00,575.00 874.00,587.00 874.00,587.00
             879.68,584.19 893.34,567.77 897.00,562.00
             897.00,562.00 886.00,550.00 886.00,550.00 Z
           M 956.00,550.00
           C 956.00,550.00 952.00,550.00 952.00,550.00
             944.53,550.14 945.27,551.37 943.58,563.00
             941.99,573.93 940.82,588.91 937.00,599.00
             940.34,598.97 950.83,598.88 952.40,595.69
             952.40,595.69 954.00,584.00 954.00,584.00
             954.00,584.00 954.00,598.00 954.00,598.00
             954.00,598.00 964.42,596.96 964.42,596.96
             964.42,596.96 977.00,596.96 977.00,596.96
             977.00,596.96 978.00,563.00 978.00,563.00
             978.00,563.00 978.00,596.00 978.00,596.00
             978.00,596.00 985.00,594.00 985.00,594.00
             985.00,594.00 985.00,575.00 985.00,575.00
             985.00,575.00 984.04,563.00 984.04,563.00
             984.04,563.00 984.04,550.00 984.04,550.00
             984.04,550.00 957.00,550.00 957.00,550.00
             957.00,550.00 956.00,554.00 956.00,554.00
             956.00,554.00 956.00,550.00 956.00,550.00 Z
           M 996.00,551.00
           C 996.00,551.00 990.00,551.00 990.00,551.00
             990.00,551.00 991.00,568.00 991.00,568.00
             991.00,568.00 992.00,593.00 992.00,593.00
             992.00,593.00 998.00,595.00 998.00,595.00
             998.00,595.00 994.00,597.00 994.00,597.00
             994.00,597.00 1014.00,601.00 1014.00,601.00
             1014.00,601.00 1009.06,588.00 1009.06,588.00
             1009.06,588.00 996.00,551.00 996.00,551.00 Z
           M 846.00,554.00
           C 846.00,554.00 847.00,559.00 847.00,559.00
             847.00,559.00 846.00,554.00 846.00,554.00 Z
           M 955.00,555.00
           C 956.46,558.69 956.46,563.31 955.00,567.00
             955.00,567.00 955.00,555.00 955.00,555.00 Z
           M 977.00,555.00
           C 977.00,555.00 977.00,562.00 977.00,562.00
             977.00,562.00 977.00,555.00 977.00,555.00 Z
           M 895.00,556.00
           C 895.00,556.00 896.00,556.00 896.00,556.00
             896.00,556.00 895.00,557.00 895.00,557.00
             895.00,557.00 895.00,556.00 895.00,556.00 Z
           M 923.00,558.00
           C 919.16,561.85 917.16,567.18 914.75,572.00
             914.75,572.00 902.75,595.00 902.75,595.00
             900.23,600.05 896.97,604.23 898.00,610.00
             898.00,610.00 900.00,610.00 900.00,610.00
             900.00,610.00 915.03,578.00 915.03,578.00
             918.09,572.33 923.63,564.50 923.00,558.00 Z
           M 75.00,566.00
           C 72.77,554.45 63.40,560.23 56.00,563.75
             52.61,565.35 49.29,566.01 47.00,569.00
             47.00,569.00 75.00,566.00 75.00,566.00 Z
           M 842.00,559.00
           C 842.00,559.00 841.00,576.00 841.00,576.00
             841.00,576.00 844.00,574.00 844.00,574.00
             844.00,574.00 849.00,577.00 849.00,577.00
             849.00,571.17 850.00,564.17 847.00,559.00
             847.00,559.00 847.00,565.00 847.00,565.00
             847.00,565.00 842.00,559.00 842.00,559.00 Z
           M 851.00,561.00
           C 849.44,564.94 849.62,573.15 851.98,576.78
             853.16,578.59 854.25,578.98 856.00,580.00
             860.37,571.78 855.72,568.23 851.00,561.00 Z
           M 265.00,564.00
           C 260.72,565.29 259.62,565.74 258.00,570.00
             264.02,572.21 266.85,570.71 271.00,566.00
             266.25,566.55 265.74,567.05 262.00,570.00
             262.00,570.00 265.00,564.00 265.00,564.00 Z
           M 275.00,566.00
           C 275.00,566.00 274.00,566.00 274.00,566.00
             274.00,566.00 275.00,567.00 275.00,567.00
             275.00,567.00 275.00,566.00 275.00,566.00 Z
           M 382.00,566.00
           C 382.00,566.00 381.00,566.00 381.00,566.00
             381.00,566.00 382.00,567.00 382.00,567.00
             382.00,567.00 382.00,566.00 382.00,566.00 Z
           M 215.00,567.00
           C 215.00,567.00 211.00,572.00 211.00,572.00
             211.00,572.00 216.00,568.00 216.00,568.00
             216.00,568.00 215.00,567.00 215.00,567.00 Z
           M 276.00,567.00
           C 276.00,567.00 277.00,572.00 277.00,572.00
             277.00,572.00 281.00,571.00 281.00,571.00
             281.00,571.00 276.00,567.00 276.00,567.00 Z
           M 370.00,567.00
           C 370.00,567.00 369.00,567.00 369.00,567.00
             369.00,567.00 370.00,568.00 370.00,568.00
             370.00,568.00 370.00,567.00 370.00,567.00 Z
           M 373.00,567.00
           C 373.00,567.00 372.00,567.00 372.00,567.00
             372.00,567.00 373.00,568.00 373.00,568.00
             373.00,568.00 373.00,567.00 373.00,567.00 Z
           M 432.00,567.00
           C 429.28,570.32 429.15,572.14 431.00,576.00
             431.00,576.00 432.00,567.00 432.00,567.00 Z
           M 852.00,566.00
           C 852.00,566.00 853.00,571.00 853.00,571.00
             853.00,571.00 852.00,566.00 852.00,566.00 Z
           M 374.00,568.00
           C 374.00,568.00 373.00,568.00 373.00,568.00
             373.00,568.00 374.00,569.00 374.00,569.00
             374.00,569.00 374.00,568.00 374.00,568.00 Z
           M 383.00,568.00
           C 383.00,568.00 384.00,572.00 384.00,572.00
             384.00,572.00 383.00,568.00 383.00,568.00 Z
           M 77.00,575.00
           C 77.00,575.00 75.40,570.02 75.40,570.02
             75.40,570.02 68.00,569.01 68.00,569.01
             68.00,569.01 48.00,571.00 48.00,571.00
             48.00,571.00 48.00,573.00 48.00,573.00
             48.00,573.00 77.00,575.00 77.00,575.00 Z
           M 363.00,569.00
           C 363.00,569.00 359.00,572.00 359.00,572.00
             359.00,572.00 363.00,569.00 363.00,569.00 Z
           M 367.00,569.00
           C 367.00,569.00 361.00,575.00 361.00,575.00
             364.37,574.41 365.28,574.53 366.00,571.00
             366.00,571.00 368.00,572.00 368.00,572.00
             368.00,572.00 367.00,569.00 367.00,569.00 Z
           M 378.00,570.00
           C 378.00,570.00 374.00,571.00 374.00,571.00
             374.00,571.00 378.00,570.00 378.00,570.00 Z
           M 227.00,572.00
           C 227.00,572.00 220.00,570.00 220.00,570.00
             220.00,570.00 217.00,574.00 217.00,574.00
             217.00,574.00 227.00,572.00 227.00,572.00 Z
           M 251.00,570.00
           C 251.00,570.00 248.00,574.00 248.00,574.00
             248.00,574.00 251.00,570.00 251.00,570.00 Z
           M 370.00,570.00
           C 370.00,570.00 369.00,570.00 369.00,570.00
             369.00,570.00 370.00,571.00 370.00,571.00
             370.00,571.00 370.00,570.00 370.00,570.00 Z
           M 436.00,570.00
           C 436.00,570.00 434.00,576.00 434.00,576.00
             434.00,576.00 436.00,570.00 436.00,570.00 Z
           M 439.00,570.00
           C 437.88,573.44 439.08,574.38 442.00,576.00
             442.00,576.00 439.00,570.00 439.00,570.00 Z
           M 504.00,570.00
           C 504.00,570.00 503.00,570.00 503.00,570.00
             503.00,570.00 504.00,571.00 504.00,571.00
             504.00,571.00 504.00,570.00 504.00,570.00 Z
           M 381.00,571.00
           C 381.00,571.00 373.00,571.00 373.00,571.00
             373.00,571.00 372.00,574.00 372.00,574.00
             372.00,574.00 381.00,571.00 381.00,571.00 Z
           M 446.00,571.00
           C 446.00,571.00 445.00,571.00 445.00,571.00
             445.00,571.00 446.00,572.00 446.00,572.00
             446.00,572.00 446.00,571.00 446.00,571.00 Z
           M 213.00,572.00
           C 213.00,572.00 212.00,572.00 212.00,572.00
             212.00,572.00 213.00,573.00 213.00,573.00
             213.00,573.00 213.00,572.00 213.00,572.00 Z
           M 843.00,571.00
           C 843.00,571.00 844.00,571.00 844.00,571.00
             844.00,571.00 843.00,572.00 843.00,572.00
             843.00,572.00 843.00,571.00 843.00,571.00 Z
           M 228.00,573.00
           C 228.00,573.00 227.00,573.00 227.00,573.00
             227.00,573.00 228.00,574.00 228.00,574.00
             228.00,574.00 228.00,573.00 228.00,573.00 Z
           M 154.00,574.00
           C 154.00,574.00 153.00,574.00 153.00,574.00
             153.00,574.00 154.00,575.00 154.00,575.00
             154.00,575.00 154.00,574.00 154.00,574.00 Z
           M 216.00,574.00
           C 216.00,574.00 215.00,574.00 215.00,574.00
             215.00,574.00 216.00,575.00 216.00,575.00
             216.00,575.00 216.00,574.00 216.00,574.00 Z
           M 248.00,574.00
           C 248.00,574.00 247.00,574.00 247.00,574.00
             247.00,574.00 248.00,575.00 248.00,575.00
             248.00,575.00 248.00,574.00 248.00,574.00 Z
           M 77.00,577.00
           C 77.00,577.00 49.00,575.00 49.00,575.00
             49.00,575.00 49.00,577.00 49.00,577.00
             49.00,577.00 78.00,583.00 78.00,583.00
             78.00,583.00 77.00,577.00 77.00,577.00 Z
           M 364.00,575.00
           C 364.00,575.00 363.00,575.00 363.00,575.00
             363.00,575.00 364.00,576.00 364.00,576.00
             364.00,576.00 364.00,575.00 364.00,575.00 Z
           M 871.00,590.00
           C 868.92,584.38 865.43,578.80 860.00,576.00
             858.55,582.86 860.08,582.63 864.59,586.67
             867.08,588.91 866.78,589.30 870.00,591.00
             870.00,591.00 871.00,590.00 871.00,590.00 Z
           M 454.00,578.00
           C 454.00,578.00 453.00,578.00 453.00,578.00
             453.00,578.00 454.00,579.00 454.00,579.00
             454.00,579.00 454.00,578.00 454.00,578.00 Z
           M 858.00,593.00
           C 857.39,582.14 850.61,580.36 841.00,579.00
             843.28,583.22 853.41,591.65 858.00,593.00 Z
           M 451.00,580.00
           C 451.00,580.00 433.00,585.00 433.00,585.00
             433.00,585.00 436.00,592.00 436.00,592.00
             436.00,592.00 451.00,580.00 451.00,580.00 Z
           M 227.00,608.00
           C 225.93,603.29 221.05,588.57 217.37,585.99
             215.57,584.74 212.14,585.01 210.00,585.00
             210.00,585.00 210.00,601.00 210.00,601.00
             210.00,601.00 209.00,623.00 209.00,623.00
             209.00,623.00 215.00,622.00 215.00,622.00
             215.00,622.00 214.00,619.00 214.00,619.00
             214.00,619.00 216.00,619.00 216.00,619.00
             216.00,619.00 216.00,623.00 216.00,623.00
             216.00,623.00 227.00,624.00 227.00,624.00
             225.27,613.73 222.03,619.21 211.00,616.00
             211.00,616.00 219.00,615.00 219.00,615.00
             219.00,615.00 213.00,609.00 213.00,609.00
             213.00,609.00 227.00,608.00 227.00,608.00 Z
           M 231.00,585.00
           C 231.00,588.02 238.05,603.03 240.07,605.71
             241.20,607.21 241.55,607.14 243.00,608.00
             243.00,608.00 242.00,586.00 242.00,586.00
             242.00,586.00 231.00,585.00 231.00,585.00 Z
           M 282.00,585.00
           C 269.72,588.26 276.44,586.61 267.00,592.00
             267.00,592.00 267.00,594.00 267.00,594.00
             267.00,594.00 276.00,599.00 276.00,599.00
             272.53,600.90 272.51,601.40 271.00,605.00
             271.00,605.00 275.00,605.00 275.00,605.00
             275.00,605.00 275.00,604.00 275.00,604.00
             275.00,604.00 273.00,602.00 273.00,602.00
             273.00,602.00 281.00,599.00 281.00,599.00
             281.00,599.00 277.00,605.00 277.00,605.00
             277.00,605.00 282.00,604.00 282.00,604.00
             282.00,604.00 282.00,585.00 282.00,585.00 Z
           M 300.00,585.00
           C 300.00,585.00 288.00,586.00 288.00,586.00
             288.00,586.00 288.00,601.00 288.00,601.00
             288.00,601.00 300.00,601.00 300.00,601.00
             300.00,601.00 300.00,585.00 300.00,585.00 Z
           M 354.00,586.00
           C 354.00,586.00 344.00,586.00 344.00,586.00
             344.00,596.39 342.69,598.51 353.00,603.00
             353.00,603.00 354.00,586.00 354.00,586.00 Z
           M 153.00,586.00
           C 153.00,586.00 152.00,586.00 152.00,586.00
             152.00,586.00 153.00,587.00 153.00,587.00
             153.00,587.00 153.00,586.00 153.00,586.00 Z
           M 229.00,586.00
           C 229.00,586.00 222.00,586.00 222.00,586.00
             224.22,593.83 230.93,610.21 239.00,613.00
             239.00,613.00 239.00,612.00 239.00,612.00
             239.00,612.00 237.00,610.00 237.00,610.00
             240.61,604.08 231.26,592.16 229.00,586.00 Z
           M 263.00,586.00
           C 263.00,586.00 260.00,591.00 260.00,591.00
             257.72,585.34 252.39,587.00 247.00,587.00
             246.84,595.51 245.26,598.88 255.00,602.00
             255.00,602.00 253.00,607.00 253.00,607.00
             253.00,607.00 260.00,606.00 260.00,606.00
             260.27,600.66 262.52,601.17 265.00,597.00
             265.00,597.00 262.00,598.00 262.00,598.00
             262.00,598.00 271.00,588.00 271.00,588.00
             271.00,588.00 268.00,587.00 268.00,587.00
             268.00,587.00 268.00,589.00 268.00,589.00
             268.00,589.00 265.00,588.00 265.00,588.00
             265.00,588.00 256.00,603.00 256.00,603.00
             256.00,603.00 263.00,586.00 263.00,586.00 Z
           M 339.00,586.00
           C 339.00,586.00 325.00,587.00 325.00,587.00
             325.00,587.00 325.00,599.00 325.00,599.00
             325.00,599.00 339.00,599.00 339.00,599.00
             339.00,599.00 339.00,586.00 339.00,586.00 Z
           M 365.00,586.00
           C 363.27,586.55 362.15,586.61 361.02,588.31
             359.54,590.56 359.51,602.34 361.02,604.58
             362.12,606.21 363.33,606.38 365.00,607.00
             365.00,607.00 365.00,586.00 365.00,586.00 Z
           M 372.00,586.00
           C 372.00,586.00 367.00,586.00 367.00,586.00
             367.00,586.00 367.54,606.46 367.54,606.46
             367.54,606.46 369.00,608.00 369.00,608.00
             369.00,608.00 373.00,598.00 373.00,598.00
             373.00,598.00 368.00,601.00 368.00,601.00
             368.00,601.00 372.00,586.00 372.00,586.00 Z
           M 375.00,586.00
           C 375.00,586.00 373.00,586.00 373.00,586.00
             373.00,586.00 371.00,592.00 371.00,592.00
             371.00,592.00 375.00,591.00 375.00,591.00
             375.00,591.00 375.00,586.00 375.00,586.00 Z
           M 378.00,586.00
           C 378.00,586.00 377.00,591.00 377.00,591.00
             377.00,591.00 378.00,586.00 378.00,586.00 Z
           M 380.00,586.00
           C 380.00,586.00 377.00,594.00 377.00,594.00
             380.11,591.90 380.98,589.65 380.00,586.00 Z
           M 387.00,586.00
           C 387.00,586.00 382.92,588.31 382.92,588.31
             382.92,588.31 374.00,612.00 374.00,612.00
             374.00,612.00 386.00,619.00 386.00,619.00
             386.00,619.00 387.00,586.00 387.00,586.00 Z
           M 390.00,586.00
           C 387.43,592.47 389.69,614.13 390.00,622.00
             390.00,622.00 391.92,622.00 391.92,622.00
             391.92,622.00 391.92,605.00 391.92,605.00
             391.92,605.00 390.00,586.00 390.00,586.00 Z
           M 321.00,587.00
           C 321.00,587.00 309.00,587.00 309.00,587.00
             309.00,587.00 309.00,599.00 309.00,599.00
             309.00,599.00 321.00,599.00 321.00,599.00
             321.00,599.00 321.00,587.00 321.00,587.00 Z
           M 58.00,588.00
           C 55.45,591.46 54.27,599.03 59.00,601.00
             59.00,601.00 58.00,588.00 58.00,588.00 Z
           M 861.00,588.00
           C 861.00,588.00 861.00,593.00 861.00,593.00
             861.00,593.00 866.00,593.00 866.00,593.00
             866.00,593.00 861.00,588.00 861.00,588.00 Z
           M 53.00,589.00
           C 50.71,592.41 51.51,597.28 53.00,601.00
             53.00,601.00 53.00,589.00 53.00,589.00 Z
           M 62.00,589.00
           C 62.00,589.00 62.00,601.00 62.00,601.00
             62.00,601.00 64.00,601.00 64.00,601.00
             64.00,596.28 64.65,593.10 62.00,589.00 Z
           M 68.00,589.00
           C 68.00,589.00 67.00,601.00 67.00,601.00
             67.00,601.00 69.00,601.00 69.00,601.00
             69.00,601.00 68.00,589.00 68.00,589.00 Z
           M 48.00,591.00
           C 46.50,594.79 46.56,597.68 49.00,601.00
             49.00,601.00 48.00,591.00 48.00,591.00 Z
           M 74.00,591.00
           C 74.00,591.00 73.00,601.00 73.00,601.00
             77.87,597.88 76.65,596.32 77.00,591.00
             77.00,591.00 74.00,591.00 74.00,591.00 Z
           M 43.00,592.00
           C 41.50,595.79 41.56,598.68 44.00,602.00
             44.00,602.00 43.00,592.00 43.00,592.00 Z
           M 372.00,593.00
           C 372.00,593.00 371.00,596.00 371.00,596.00
             371.00,596.00 375.00,595.00 375.00,595.00
             375.00,595.00 372.00,593.00 372.00,593.00 Z
           M 922.00,592.00
           C 922.00,592.00 922.00,598.00 922.00,598.00
             922.00,598.00 922.00,592.00 922.00,592.00 Z
           M 891.00,594.00
           C 891.00,594.00 890.00,598.00 890.00,598.00
             890.00,598.00 891.00,594.00 891.00,594.00 Z
           M 39.00,595.00
           C 39.00,595.00 37.00,602.00 37.00,602.00
             40.39,600.00 39.50,598.59 39.00,595.00 Z
           M 378.00,596.00
           C 378.00,596.00 374.00,597.00 374.00,597.00
             374.00,597.00 377.00,600.00 377.00,600.00
             377.00,600.00 378.00,596.00 378.00,596.00 Z
           M 880.00,596.00
           C 880.00,596.00 879.00,596.00 879.00,596.00
             879.00,596.00 880.00,597.00 880.00,597.00
             880.00,597.00 880.00,596.00 880.00,596.00 Z
           M 74.00,596.00
           C 74.00,596.00 75.00,596.00 75.00,596.00
             75.00,596.00 74.00,597.00 74.00,597.00
             74.00,597.00 74.00,596.00 74.00,596.00 Z
           M 272.00,601.00
           C 270.93,597.93 271.07,598.07 268.00,597.00
             268.00,597.00 268.00,601.00 268.00,601.00
             268.00,601.00 272.00,601.00 272.00,601.00 Z
           M 881.00,597.00
           C 881.00,597.00 880.00,597.00 880.00,597.00
             880.00,597.00 881.00,598.00 881.00,598.00
             881.00,598.00 881.00,597.00 881.00,597.00 Z
           M 972.00,599.00
           C 972.00,599.00 965.00,599.00 965.00,599.00
             965.00,599.00 965.00,603.00 965.00,603.00
             965.00,603.00 971.00,601.00 971.00,601.00
             969.74,604.96 969.23,605.72 972.00,609.00
             972.00,609.00 972.00,599.00 972.00,599.00 Z
           M 975.00,599.00
           C 975.00,599.00 973.00,599.00 973.00,599.00
             973.00,599.00 974.00,606.00 974.00,606.00
             974.00,606.00 975.00,599.00 975.00,599.00 Z
           M 978.00,599.00
           C 978.00,599.00 974.00,607.00 974.00,607.00
             974.00,607.00 976.00,607.00 976.00,607.00
             975.26,610.69 975.30,611.63 977.00,615.00
             977.00,615.00 978.00,599.00 978.00,599.00 Z
           M 267.00,600.00
           C 267.00,600.00 265.00,600.00 265.00,600.00
             265.00,600.00 264.00,604.00 264.00,604.00
             264.00,604.00 270.00,605.00 270.00,605.00
             270.00,605.00 266.00,603.00 266.00,603.00
             266.00,603.00 267.00,600.00 267.00,600.00 Z
           M 376.00,600.00
           C 376.00,600.00 375.00,600.00 375.00,600.00
             375.00,600.00 376.00,601.00 376.00,601.00
             376.00,601.00 376.00,600.00 376.00,600.00 Z
           M 875.00,600.00
           C 875.00,600.00 874.00,600.00 874.00,600.00
             874.00,600.00 875.00,601.00 875.00,601.00
             875.00,601.00 875.00,600.00 875.00,600.00 Z
           M 878.00,600.00
           C 878.00,600.00 877.00,600.00 877.00,600.00
             877.00,600.00 878.00,601.00 878.00,601.00
             878.00,601.00 878.00,600.00 878.00,600.00 Z
           M 945.00,600.00
           C 943.33,600.43 939.83,601.07 938.56,601.98
             935.62,604.07 933.63,612.46 933.00,616.00
             933.00,616.00 941.00,618.00 941.00,618.00
             941.00,618.00 940.27,610.58 940.27,610.58
             940.27,610.58 945.00,600.00 945.00,600.00 Z
           M 953.00,600.00
           C 951.17,600.40 949.15,600.67 947.65,601.90
             943.92,604.96 943.08,614.50 943.59,619.00
             943.81,620.93 943.94,624.74 945.60,625.94
             947.44,627.27 961.08,625.42 964.00,625.00
             964.00,625.00 962.98,605.56 962.98,605.56
             962.98,605.56 955.00,602.00 955.00,602.00
             955.00,602.00 952.00,625.00 952.00,625.00
             952.00,625.00 953.00,600.00 953.00,600.00 Z
           M 962.00,602.00
           C 959.90,599.66 958.83,599.91 956.00,601.00
             956.00,601.00 962.00,602.00 962.00,602.00 Z
           M 1015.00,603.00
           C 1015.00,603.00 1001.00,600.00 1001.00,600.00
             1003.93,606.43 1006.70,609.98 1014.00,611.00
             1014.00,611.00 1015.00,603.00 1015.00,603.00 Z
           M 997.00,601.00
           C 997.00,601.00 998.66,609.00 998.66,609.00
             998.66,609.00 999.59,624.41 999.59,624.41
             999.59,624.41 1002.00,626.00 1002.00,626.00
             1000.50,617.51 1003.19,607.78 997.00,601.00 Z
           M 262.00,602.00
           C 262.00,602.00 261.00,606.00 261.00,606.00
             261.00,606.00 264.00,605.00 264.00,605.00
             264.00,605.00 264.00,604.00 264.00,604.00
             264.00,604.00 262.00,602.00 262.00,602.00 Z
           M 874.00,602.00
           C 874.00,602.00 870.00,616.00 870.00,616.00
             870.00,616.00 871.00,603.00 871.00,603.00
             869.61,603.78 869.01,603.78 868.01,605.29
             864.44,610.67 867.00,627.09 867.00,634.00
             867.00,634.00 869.89,634.00 869.89,634.00
             869.88,631.47 868.97,626.19 869.89,624.14
             871.09,620.83 874.24,621.30 876.28,619.27
             881.67,613.88 877.46,606.80 874.00,602.00 Z
           M 879.00,602.00
           C 879.00,602.00 880.00,608.00 880.00,608.00
             880.00,608.00 884.00,606.00 884.00,606.00
             884.00,606.00 879.00,602.00 879.00,602.00 Z
           M 995.00,602.00
           C 995.00,602.00 994.00,602.00 994.00,602.00
             994.00,602.00 995.00,603.00 995.00,603.00
             995.00,603.00 995.00,602.00 995.00,602.00 Z
           M 276.00,603.00
           C 276.00,603.00 275.00,603.00 275.00,603.00
             275.00,603.00 276.00,604.00 276.00,604.00
             276.00,604.00 276.00,603.00 276.00,603.00 Z
           M 371.00,604.00
           C 371.00,604.00 370.00,604.00 370.00,604.00
             370.00,604.00 371.00,605.00 371.00,605.00
             371.00,605.00 371.00,604.00 371.00,604.00 Z
           M 933.00,604.00
           C 933.00,604.00 917.00,609.00 917.00,609.00
             917.00,609.00 921.00,612.00 921.00,612.00
             921.00,612.00 925.00,608.00 925.00,608.00
             925.00,608.00 922.00,610.00 922.00,610.00
             922.00,610.00 922.00,613.00 922.00,613.00
             922.00,613.00 925.00,615.00 925.00,615.00
             919.13,613.76 916.55,615.34 912.00,619.00
             916.58,621.41 918.65,623.26 924.00,623.00
             924.00,623.00 924.00,631.00 924.00,631.00
             928.77,623.34 930.79,620.35 931.00,611.00
             931.00,611.00 926.00,613.00 926.00,613.00
             926.00,613.00 930.00,607.00 930.00,607.00
             930.00,607.00 932.00,610.00 932.00,610.00
             932.00,610.00 933.00,604.00 933.00,604.00 Z
           M 251.00,605.00
           C 251.00,605.00 250.00,605.00 250.00,605.00
             250.00,605.00 251.00,606.00 251.00,606.00
             251.00,606.00 251.00,605.00 251.00,605.00 Z
           M 374.00,605.00
           C 374.00,605.00 373.00,605.00 373.00,605.00
             373.00,605.00 374.00,606.00 374.00,606.00
             374.00,606.00 374.00,605.00 374.00,605.00 Z
           M 307.00,606.00
           C 307.00,606.00 304.00,606.00 304.00,606.00
             304.00,606.00 305.00,613.00 305.00,613.00
             305.00,613.00 307.00,606.00 307.00,606.00 Z
           M 373.00,606.00
           C 373.00,606.00 370.00,610.00 370.00,610.00
             370.00,610.00 373.00,606.00 373.00,606.00 Z
           M 966.00,606.00
           C 966.00,606.00 965.00,625.00 965.00,625.00
             965.00,625.00 972.00,625.00 972.00,625.00
             973.76,615.63 974.04,612.70 966.00,606.00 Z
           M 267.00,607.00
           C 267.00,607.00 261.00,610.00 261.00,610.00
             261.00,610.00 267.00,607.00 267.00,607.00 Z
           M 273.00,607.00
           C 273.00,607.00 271.00,607.00 271.00,607.00
             271.00,607.00 268.00,612.00 268.00,612.00
             268.00,612.00 273.00,607.00 273.00,607.00 Z
           M 345.00,607.00
           C 345.00,607.00 344.00,607.00 344.00,607.00
             344.00,607.00 345.00,608.00 345.00,608.00
             345.00,608.00 345.00,607.00 345.00,607.00 Z
           M 259.00,611.00
           C 257.37,607.00 255.63,608.65 252.00,610.00
             252.00,610.00 255.00,613.00 255.00,613.00
             255.79,610.62 256.66,610.94 259.00,611.00 Z
           M 399.00,608.00
           C 396.01,611.39 392.30,619.23 395.02,623.62
             396.28,625.65 398.97,626.89 401.00,628.00
             401.00,628.00 399.00,608.00 399.00,608.00 Z
           M 943.00,608.00
           C 943.00,608.00 942.00,612.00 942.00,612.00
             942.00,612.00 943.00,608.00 943.00,608.00 Z
           M 243.00,609.00
           C 243.00,609.00 242.00,609.00 242.00,609.00
             242.00,609.00 243.00,610.00 243.00,610.00
             243.00,610.00 243.00,609.00 243.00,609.00 Z
           M 353.00,609.00
           C 353.00,609.00 352.00,609.00 352.00,609.00
             352.00,609.00 353.00,610.00 353.00,610.00
             353.00,610.00 353.00,609.00 353.00,609.00 Z
           M 886.00,609.00
           C 886.00,609.00 884.00,609.00 884.00,609.00
             880.30,614.39 879.33,615.38 879.00,622.00
             882.53,619.36 884.80,613.19 886.00,609.00 Z
           M 973.00,609.00
           C 973.00,609.00 972.00,609.00 972.00,609.00
             972.00,609.00 973.00,610.00 973.00,610.00
             973.00,610.00 973.00,609.00 973.00,609.00 Z
           M 207.00,611.00
           C 207.00,611.00 202.00,610.00 202.00,610.00
             202.00,610.00 199.00,625.00 199.00,625.00
             199.00,625.00 207.00,624.00 207.00,624.00
             207.00,624.00 207.00,611.00 207.00,611.00 Z
           M 248.00,610.00
           C 248.00,610.00 249.00,614.00 249.00,614.00
             249.00,614.00 248.00,610.00 248.00,610.00 Z
           M 261.00,610.00
           C 261.00,610.00 260.00,610.00 260.00,610.00
             260.00,610.00 261.00,611.00 261.00,611.00
             261.00,611.00 261.00,610.00 261.00,610.00 Z
           M 296.00,610.00
           C 296.00,610.00 284.00,610.00 284.00,610.00
             284.00,610.00 284.00,613.00 284.00,613.00
             288.46,613.00 293.03,613.82 296.00,610.00 Z
           M 355.00,610.00
           C 355.00,610.00 354.00,610.00 354.00,610.00
             354.00,610.00 355.00,611.00 355.00,611.00
             355.00,611.00 355.00,610.00 355.00,610.00 Z
           M 917.00,610.00
           C 911.84,611.18 908.99,611.33 908.00,617.00
             912.90,616.22 915.40,614.85 917.00,610.00 Z
           M 1011.00,612.00
           C 1011.00,612.00 1004.00,610.00 1004.00,610.00
             1004.00,610.00 1004.00,617.00 1004.00,617.00
             1008.18,616.10 1008.96,615.82 1011.00,612.00 Z
           M 268.00,612.00
           C 268.00,612.00 262.00,613.00 262.00,613.00
             262.00,613.00 268.00,612.00 268.00,612.00 Z
           M 324.00,611.00
           C 324.00,611.00 323.00,611.00 323.00,611.00
             323.00,611.00 324.00,612.00 324.00,612.00
             324.00,612.00 324.00,611.00 324.00,611.00 Z
           M 326.00,611.00
           C 326.00,611.00 325.00,611.00 325.00,611.00
             325.00,611.00 326.00,612.00 326.00,612.00
             326.00,612.00 326.00,611.00 326.00,611.00 Z
           M 328.00,611.00
           C 328.00,611.00 327.00,611.00 327.00,611.00
             327.00,611.00 328.00,612.00 328.00,612.00
             328.00,612.00 328.00,611.00 328.00,611.00 Z
           M 330.00,611.00
           C 330.00,611.00 329.00,611.00 329.00,611.00
             329.00,611.00 330.00,612.00 330.00,612.00
             330.00,612.00 330.00,611.00 330.00,611.00 Z
           M 336.00,611.00
           C 336.00,611.00 335.00,615.00 335.00,615.00
             335.00,615.00 336.00,611.00 336.00,611.00 Z
           M 408.00,611.00
           C 408.00,611.00 405.84,611.00 405.84,611.00
             405.84,611.00 405.84,629.86 405.84,629.86
             405.84,629.86 408.98,633.00 408.98,633.00
             408.98,633.00 408.98,620.00 408.98,620.00
             408.98,620.00 408.00,611.00 408.00,611.00 Z
           M 259.00,612.00
           C 259.00,612.00 258.00,612.00 258.00,612.00
             258.00,612.00 259.00,613.00 259.00,613.00
             259.00,613.00 259.00,612.00 259.00,612.00 Z
           M 345.00,612.00
           C 345.00,612.00 346.00,617.00 346.00,617.00
             346.00,617.00 345.00,612.00 345.00,612.00 Z
           M 896.00,612.00
           C 896.00,612.00 893.00,622.00 893.00,622.00
             897.10,619.33 897.15,616.45 896.00,612.00 Z
           M 1014.00,612.00
           C 1014.00,612.00 1010.60,615.72 1010.60,615.72
             1006.35,619.68 1004.50,618.64 1004.00,625.00
             1004.00,625.00 1016.00,628.00 1016.00,628.00
             1016.00,628.00 1014.00,612.00 1014.00,612.00 Z
           M 193.00,613.00
           C 193.00,613.00 192.00,628.00 192.00,628.00
             192.00,628.00 194.00,628.00 194.00,628.00
             194.00,628.00 193.00,613.00 193.00,613.00 Z
           M 258.00,613.00
           C 258.00,613.00 257.00,613.00 257.00,613.00
             257.00,613.00 258.00,614.00 258.00,614.00
             258.00,614.00 258.00,613.00 258.00,613.00 Z
           M 262.00,613.00
           C 262.00,613.00 261.00,613.00 261.00,613.00
             261.00,613.00 262.00,614.00 262.00,614.00
             262.00,614.00 262.00,613.00 262.00,613.00 Z
           M 321.00,613.00
           C 321.00,613.00 320.00,613.00 320.00,613.00
             320.00,613.00 321.00,614.00 321.00,614.00
             321.00,614.00 321.00,613.00 321.00,613.00 Z
           M 324.00,613.00
           C 324.00,613.00 322.00,617.00 322.00,617.00
             322.00,617.00 324.00,613.00 324.00,613.00 Z
           M 327.00,613.00
           C 327.00,613.00 325.00,617.00 325.00,617.00
             325.00,617.00 327.00,613.00 327.00,613.00 Z
           M 330.00,613.00
           C 330.00,613.00 329.00,613.00 329.00,613.00
             329.00,613.00 330.00,614.00 330.00,614.00
             330.00,614.00 330.00,613.00 330.00,613.00 Z
           M 338.00,613.00
           C 338.00,613.00 337.00,613.00 337.00,613.00
             337.00,613.00 338.00,614.00 338.00,614.00
             338.00,614.00 338.00,613.00 338.00,613.00 Z
           M 329.00,614.00
           C 329.00,614.00 328.00,614.00 328.00,614.00
             328.00,614.00 329.00,615.00 329.00,615.00
             329.00,615.00 329.00,614.00 329.00,614.00 Z
           M 917.00,614.00
           C 917.00,614.00 916.00,614.00 916.00,614.00
             916.00,614.00 917.00,615.00 917.00,615.00
             917.00,615.00 917.00,614.00 917.00,614.00 Z
           M 979.00,614.00
           C 975.41,618.40 975.24,621.57 979.00,626.00
             979.00,626.00 979.00,614.00 979.00,614.00 Z
           M 305.00,615.00
           C 305.00,615.00 305.00,620.00 305.00,620.00
             305.00,620.00 305.00,615.00 305.00,615.00 Z
           M 315.00,615.00
           C 315.00,615.00 314.00,615.00 314.00,615.00
             314.00,615.00 315.00,616.00 315.00,616.00
             315.00,616.00 315.00,615.00 315.00,615.00 Z
           M 338.00,615.00
           C 338.00,615.00 337.00,615.00 337.00,615.00
             337.00,615.00 338.00,616.00 338.00,616.00
             338.00,616.00 338.00,615.00 338.00,615.00 Z
           M 340.00,615.00
           C 340.00,615.00 339.00,615.00 339.00,615.00
             339.00,615.00 340.00,616.00 340.00,616.00
             340.00,616.00 340.00,615.00 340.00,615.00 Z
           M 332.00,616.00
           C 332.00,616.00 331.00,616.00 331.00,616.00
             331.00,616.00 332.00,617.00 332.00,617.00
             332.00,617.00 332.00,616.00 332.00,616.00 Z
           M 335.00,616.00
           C 335.00,616.00 334.00,616.00 334.00,616.00
             334.00,616.00 335.00,617.00 335.00,617.00
             335.00,617.00 335.00,616.00 335.00,616.00 Z
           M 229.00,617.00
           C 227.73,622.36 231.49,623.63 236.00,624.00
             236.00,624.00 229.00,617.00 229.00,617.00 Z
           M 309.00,618.00
           C 309.00,618.00 308.00,618.00 308.00,618.00
             308.00,618.00 309.00,619.00 309.00,619.00
             309.00,619.00 309.00,618.00 309.00,618.00 Z
           M 344.00,618.00
           C 344.00,618.00 343.00,618.00 343.00,618.00
             343.00,618.00 344.00,619.00 344.00,619.00
             344.00,619.00 344.00,618.00 344.00,618.00 Z
           M 941.00,625.00
           C 940.23,618.50 938.09,618.30 932.00,618.00
             932.00,618.00 930.00,625.00 930.00,625.00
             930.00,625.00 941.00,625.00 941.00,625.00 Z
           M 942.00,618.00
           C 942.00,618.00 941.00,618.00 941.00,618.00
             941.00,618.00 942.00,619.00 942.00,619.00
             942.00,619.00 942.00,618.00 942.00,618.00 Z
           M 172.20,619.00
           C 170.82,621.54 168.82,628.25 168.32,631.00
             167.83,633.71 168.12,637.22 165.57,638.98
             163.88,640.14 160.99,639.97 159.00,640.00
             159.00,640.00 159.00,649.00 159.00,649.00
             162.82,646.58 170.82,641.17 172.20,636.99
             173.98,632.81 172.37,623.58 172.20,619.00 Z
           M 308.00,619.00
           C 308.00,619.00 307.00,619.00 307.00,619.00
             307.00,619.00 308.00,620.00 308.00,620.00
             308.00,620.00 308.00,619.00 308.00,619.00 Z
           M 312.00,619.00
           C 312.00,619.00 311.00,619.00 311.00,619.00
             311.00,619.00 312.00,620.00 312.00,620.00
             312.00,620.00 312.00,619.00 312.00,619.00 Z
           M 315.00,619.00
           C 315.00,619.00 314.00,619.00 314.00,619.00
             314.00,619.00 315.00,620.00 315.00,620.00
             315.00,620.00 315.00,619.00 315.00,619.00 Z
           M 329.00,619.00
           C 329.04,621.54 331.33,620.62 333.00,620.00
             333.00,620.00 329.00,619.00 329.00,619.00 Z
           M 334.00,619.00
           C 334.00,619.00 333.00,619.00 333.00,619.00
             333.00,619.00 334.00,620.00 334.00,620.00
             334.00,620.00 334.00,619.00 334.00,619.00 Z
           M 342.00,619.00
           C 342.00,619.00 334.00,621.00 334.00,621.00
             337.32,620.99 339.66,621.61 342.00,619.00 Z
           M 905.00,619.00
           C 905.00,619.00 899.00,630.00 899.00,630.00
             899.00,630.00 910.00,633.00 910.00,633.00
             907.12,626.20 905.26,627.05 905.00,619.00 Z
           M 909.00,619.00
           C 906.91,624.47 909.63,630.94 916.00,631.00
             919.43,634.42 921.20,628.69 922.00,626.00
             922.00,626.00 909.00,619.00 909.00,619.00 Z
           M 317.00,620.00
           C 317.00,620.00 316.00,620.00 316.00,620.00
             316.00,620.00 317.00,621.00 317.00,621.00
             317.00,621.00 317.00,620.00 317.00,620.00 Z
           M 216.00,621.00
           C 216.00,621.00 215.00,621.00 215.00,621.00
             215.00,621.00 216.00,622.00 216.00,622.00
             216.00,622.00 216.00,621.00 216.00,621.00 Z
           M 150.00,625.00
           C 150.00,625.00 134.00,626.00 134.00,626.00
             134.00,626.00 133.00,650.00 133.00,650.00
             133.00,650.00 149.00,655.00 149.00,655.00
             149.00,655.00 150.00,625.00 150.00,625.00 Z
           M 116.00,627.00
           C 116.00,627.00 113.00,627.00 113.00,627.00
             113.00,627.00 112.00,647.00 112.00,647.00
             112.00,647.00 118.00,648.00 118.00,648.00
             118.00,648.00 117.00,627.00 117.00,627.00
             117.00,627.00 116.00,641.00 116.00,641.00
             116.00,641.00 116.00,627.00 116.00,627.00 Z
           M 101.00,628.00
           C 101.00,628.00 98.00,628.00 98.00,628.00
             98.00,632.89 96.46,639.96 101.00,643.00
             101.00,643.00 101.00,628.00 101.00,628.00 Z
           M 107.00,630.00
           C 107.00,630.00 103.00,628.00 103.00,628.00
             103.00,633.41 101.23,641.42 106.00,645.00
             106.00,645.00 107.00,631.00 107.00,631.00
             107.00,631.00 107.00,646.00 107.00,646.00
             107.00,646.00 110.00,646.00 110.00,646.00
             110.00,646.00 110.00,628.00 110.00,628.00
             110.00,628.00 107.00,630.00 107.00,630.00 Z
           M 348.00,628.00
           C 348.00,628.00 347.00,628.00 347.00,628.00
             347.00,628.00 348.00,629.00 348.00,629.00
             348.00,629.00 348.00,628.00 348.00,628.00 Z
           M 31.00,629.00
           C 28.20,633.54 29.00,639.82 29.00,645.00
             29.00,645.00 31.00,645.00 31.00,645.00
             31.00,645.00 31.00,629.00 31.00,629.00 Z
           M 49.00,629.00
           C 49.00,629.00 46.00,629.00 46.00,629.00
             46.00,629.00 45.00,645.00 45.00,645.00
             45.00,645.00 47.41,643.41 47.41,643.41
             47.41,643.41 49.00,629.00 49.00,629.00 Z
           M 96.00,629.00
           C 96.00,629.00 94.00,629.00 94.00,629.00
             94.00,629.00 94.00,642.00 94.00,642.00
             94.00,642.00 96.00,642.00 96.00,642.00
             96.00,642.00 96.00,629.00 96.00,629.00 Z
           M 123.00,629.00
           C 123.00,629.00 123.00,636.00 123.00,636.00
             123.00,636.00 123.00,629.00 123.00,629.00 Z
           M 129.00,629.00
           C 129.00,629.00 127.00,648.00 127.00,648.00
             130.46,644.89 129.00,633.72 129.00,629.00 Z
           M 347.00,629.00
           C 347.00,629.00 303.00,629.00 303.00,629.00
             307.73,636.45 311.89,639.57 317.58,646.00
             319.45,648.11 321.83,651.34 325.00,651.18
             327.85,651.03 330.50,647.92 332.27,645.96
             332.27,645.96 347.00,629.00 347.00,629.00 Z
           M 59.00,630.00
           C 59.00,630.00 53.00,630.00 53.00,630.00
             53.00,630.00 52.00,645.00 52.00,645.00
             52.00,645.00 59.00,645.00 59.00,645.00
             59.00,645.00 59.00,630.00 59.00,630.00 Z
           M 65.00,630.00
           C 65.00,630.00 63.00,630.00 63.00,630.00
             63.00,630.00 63.00,645.00 63.00,645.00
             63.00,645.00 65.00,645.00 65.00,645.00
             65.00,645.00 65.00,630.00 65.00,630.00 Z
           M 24.00,631.00
           C 24.00,631.00 9.00,631.00 9.00,631.00
             9.00,631.00 8.00,645.00 8.00,645.00
             8.00,645.00 24.00,645.00 24.00,645.00
             24.00,645.00 24.00,631.00 24.00,631.00 Z
           M 42.00,631.00
           C 42.00,631.00 34.00,631.00 34.00,631.00
             34.00,631.00 34.00,645.00 34.00,645.00
             34.00,645.00 41.00,645.00 41.00,645.00
             41.00,645.00 42.00,631.00 42.00,631.00 Z
           M 99.00,630.00
           C 99.00,630.00 100.00,630.00 100.00,630.00
             100.00,630.00 99.00,631.00 99.00,631.00
             99.00,631.00 99.00,630.00 99.00,630.00 Z
           M 99.00,632.00
           C 100.31,635.30 100.31,637.70 99.00,641.00
             99.00,641.00 99.00,632.00 99.00,632.00 Z
           M 3.00,634.00
           C 1.41,637.52 0.92,643.30 5.00,645.00
             5.00,645.00 3.00,634.00 3.00,634.00 Z
           M 177.00,634.00
           C 177.00,634.00 176.00,634.00 176.00,634.00
             176.00,634.00 177.00,635.00 177.00,635.00
             177.00,635.00 177.00,634.00 177.00,634.00 Z
           M 871.00,650.00
           C 871.00,650.00 862.00,650.00 862.00,650.00
             864.60,653.82 865.74,653.70 870.00,655.00
             870.00,655.00 871.00,650.00 871.00,650.00 Z
           M 885.00,650.00
           C 885.00,650.00 879.00,650.00 879.00,650.00
             879.12,654.16 878.93,655.03 882.00,658.00
             882.00,658.00 885.00,650.00 885.00,650.00 Z
           M 13.00,652.00
           C 13.00,652.00 11.00,680.00 11.00,680.00
             14.88,678.39 13.99,675.85 14.00,672.00
             14.01,665.41 14.56,658.42 13.00,652.00 Z
           M 652.00,655.00
           C 652.00,655.00 630.00,656.00 630.00,656.00
             630.00,656.00 617.00,657.00 617.00,657.00
             617.00,657.00 645.00,656.32 645.00,656.32
             645.00,656.32 652.00,657.00 652.00,657.00
             652.00,657.00 652.00,655.00 652.00,655.00 Z
           M 497.00,656.00
           C 497.00,656.00 473.00,657.00 473.00,657.00
             473.00,657.00 497.00,656.00 497.00,656.00 Z
           M 559.00,656.00
           C 559.00,656.00 526.00,656.00 526.00,656.00
             526.00,656.00 510.00,657.00 510.00,657.00
             510.00,657.00 543.00,657.00 543.00,657.00
             543.00,657.00 559.00,656.00 559.00,656.00 Z
           M 589.00,656.00
           C 589.00,656.00 568.00,657.00 568.00,657.00
             568.00,657.00 589.00,656.00 589.00,656.00 Z
           M 705.00,656.00
           C 705.00,656.00 687.00,657.00 687.00,657.00
             687.00,657.00 705.00,656.00 705.00,656.00 Z
           M 971.69,488.15M -0.06,768.12
           C -0.06,768.12 0.00,564.00 0.00,564.00
             0.00,564.00 3.00,565.00 3.00,565.00
             3.00,565.00 0.00,560.00 0.00,560.00
             0.00,560.00 4.00,561.00 4.00,561.00
             4.00,561.00 0.00,556.00 0.00,556.00
             0.00,556.00 5.00,558.00 5.00,558.00
             5.00,558.00 0.00,550.00 0.00,550.00
             0.00,550.00 8.00,555.00 8.00,555.00
             4.76,551.53 -0.50,548.28 2.00,543.00
             2.91,549.09 7.01,552.20 13.00,552.00
             13.00,552.00 7.72,536.00 7.72,536.00
             5.66,529.10 5.74,524.07 0.00,519.00
             0.00,519.00 0.00,517.00 0.00,517.00
             14.12,512.86 29.06,515.82 42.00,522.25
             45.70,524.09 50.51,525.66 53.00,529.00
             53.00,529.00 49.00,528.00 49.00,528.00
             47.04,536.21 38.84,546.02 34.00,553.00
             34.00,553.00 37.00,552.00 37.00,552.00
             37.00,552.00 36.00,555.00 36.00,555.00
             36.00,555.00 54.00,529.00 54.00,529.00
             59.53,530.77 63.51,536.40 66.79,541.00
             77.14,555.51 79.20,567.57 80.00,585.00
             80.00,585.00 101.24,591.00 101.24,591.00
             100.19,594.35 98.78,602.79 101.24,605.40
             104.07,607.90 116.99,606.98 121.00,607.00
             130.04,607.05 127.10,608.86 135.00,609.00
             141.29,609.10 147.90,608.27 154.00,610.00
             154.00,610.00 156.00,599.00 156.00,599.00
             156.00,599.00 148.00,599.00 148.00,599.00
             148.00,599.00 152.00,594.00 152.00,594.00
             150.47,590.96 150.07,590.88 152.00,588.00
             143.43,585.68 145.09,582.35 145.95,575.00
             147.06,565.54 150.87,559.08 161.00,558.00
             161.00,558.00 162.00,543.00 162.00,543.00
             175.61,541.81 164.67,549.43 170.40,557.01
             170.40,557.01 175.49,563.00 175.49,563.00
             178.15,566.76 180.62,575.38 180.39,580.00
             180.10,585.63 176.65,587.09 177.04,597.00
             177.04,597.00 178.66,609.00 178.66,609.00
             178.66,609.00 177.08,624.00 177.08,624.00
             177.08,624.00 177.08,634.00 177.08,634.00
             177.08,634.00 186.89,627.79 186.89,627.79
             186.89,627.79 186.89,616.00 186.89,616.00
             186.89,616.00 185.00,618.00 185.00,618.00
             185.00,618.00 184.00,618.00 184.00,618.00
             184.29,614.51 184.03,613.99 187.00,612.00
             186.22,610.33 184.92,607.80 184.66,606.00
             183.94,601.05 187.80,599.41 192.00,599.10
             199.31,598.56 202.74,601.51 207.02,607.00
             207.02,607.00 207.02,596.00 207.02,596.00
             207.02,596.00 207.57,590.02 207.57,590.02
             207.49,587.98 207.01,586.58 204.85,586.04
             203.28,585.64 197.97,586.73 196.00,587.00
             196.00,587.00 194.00,582.00 194.00,582.00
             197.30,580.37 200.72,578.57 202.23,574.96
             203.76,571.30 201.48,569.16 205.24,565.38
             215.10,555.45 230.96,560.08 232.00,573.00
             232.00,573.00 228.00,574.00 228.00,574.00
             228.00,574.00 231.00,580.00 231.00,580.00
             234.24,580.00 240.08,580.57 242.57,578.40
             245.69,575.69 244.31,571.72 246.17,568.00
             249.31,561.75 259.70,554.44 267.00,555.37
             271.02,555.87 278.79,560.19 283.00,562.00
             283.00,559.03 283.17,554.84 282.45,552.04
             281.78,549.48 280.08,547.38 280.54,544.97
             281.36,540.77 286.21,540.54 288.01,542.74
             289.18,544.18 288.98,547.22 289.00,549.00
             289.00,549.00 286.00,549.00 286.00,549.00
             286.03,552.62 286.10,558.85 288.58,561.69
             292.68,566.37 301.33,562.86 306.00,561.00
             305.33,559.37 304.53,557.81 304.48,556.00
             304.32,549.89 312.16,543.60 317.00,541.00
             317.00,541.00 316.00,535.00 316.00,535.00
             316.00,535.00 321.00,537.00 321.00,537.00
             321.00,537.00 326.00,533.00 326.00,533.00
             330.33,538.78 328.95,539.24 330.67,541.49
             334.62,546.68 341.36,547.05 342.00,558.00
             342.00,558.00 338.00,558.00 338.00,558.00
             343.39,564.61 346.06,563.99 353.93,564.00
             353.93,564.00 353.93,551.04 353.93,551.04
             353.93,551.04 351.96,543.91 351.96,543.91
             351.96,543.91 355.00,537.00 355.00,537.00
             357.38,538.99 365.09,546.31 359.00,548.00
             359.00,548.00 358.00,563.00 358.00,563.00
             358.00,563.00 369.00,557.78 369.00,557.78
             378.77,554.60 390.70,557.25 397.41,565.43
             400.81,569.57 397.68,570.43 400.70,575.04
             404.89,581.46 407.69,580.01 408.00,589.00
             398.38,587.53 406.35,585.91 392.00,586.00
             392.00,586.00 393.00,604.00 393.00,604.00
             396.07,601.88 399.27,598.80 403.00,598.24
             404.92,597.95 407.23,598.24 408.94,599.17
             415.06,602.51 412.46,609.55 412.04,615.00
             412.04,615.00 412.04,627.00 412.04,627.00
             412.03,641.23 419.74,639.60 428.00,650.00
             432.23,639.63 427.59,643.95 425.00,636.00
             425.00,636.00 431.00,637.00 431.00,637.00
             431.00,629.65 431.50,622.82 425.87,617.08
             423.37,614.52 422.30,613.86 419.00,615.00
             419.45,612.80 419.81,610.34 421.13,608.47
             422.44,606.61 424.72,605.92 424.98,603.78
             425.23,601.65 423.16,599.27 422.60,597.00
             420.88,590.00 428.51,590.32 433.00,589.00
             424.47,586.78 424.75,586.16 416.00,589.00
             414.14,581.81 419.25,577.60 422.10,571.00
             423.40,567.99 423.28,566.06 425.72,563.39
             428.20,560.67 431.60,559.96 432.96,557.61
             433.91,555.74 433.13,552.18 432.96,550.00
             432.81,544.56 432.68,542.01 435.00,537.00
             435.00,537.00 437.00,537.00 437.00,537.00
             438.45,539.29 439.94,541.16 439.80,544.00
             440.03,546.06 438.02,551.96 439.80,555.91
             441.08,559.60 446.84,562.25 449.78,565.30
             453.34,569.00 453.77,573.12 454.00,578.00
             462.66,573.57 476.26,570.05 486.00,570.00
             491.66,569.97 497.52,570.56 503.00,569.00
             497.85,566.32 496.86,563.23 495.00,558.00
             499.99,557.49 502.18,559.20 507.00,560.35
             507.00,560.35 533.00,566.35 533.00,566.35
             541.56,568.28 549.11,571.60 548.00,559.00
             548.00,559.00 543.00,560.00 543.00,560.00
             543.00,560.00 543.00,554.00 543.00,554.00
             548.47,553.55 550.52,553.30 555.00,550.00
             556.42,551.80 557.15,552.81 559.04,554.22
             560.12,555.03 561.69,556.00 563.00,556.34
             564.80,556.79 566.33,556.46 567.94,555.58
             575.21,551.65 570.46,540.36 577.00,536.00
             577.00,536.00 578.00,539.00 578.00,539.00
             579.98,534.26 582.77,536.50 583.00,543.00
             583.00,543.00 604.94,531.59 604.94,531.59
             612.24,525.55 605.62,521.33 616.00,521.00
             616.05,517.03 617.38,517.30 621.00,517.00
             623.76,504.20 635.44,511.32 643.00,506.00
             643.00,506.00 643.00,510.00 643.00,510.00
             643.00,510.00 663.00,507.00 663.00,507.00
             663.00,507.00 662.00,509.00 662.00,509.00
             668.56,509.70 671.20,511.20 672.00,518.00
             682.20,518.84 677.36,524.88 682.31,529.30
             684.19,530.98 691.30,533.50 694.00,534.60
             700.85,537.40 703.77,539.26 710.00,543.00
             710.00,543.00 710.00,535.00 710.00,535.00
             710.00,535.00 714.00,537.00 714.00,537.00
             714.00,537.00 716.00,531.00 716.00,531.00
             718.53,542.20 720.19,542.00 721.45,546.00
             722.30,548.74 721.66,551.21 723.60,553.61
             725.18,555.57 728.76,557.08 731.00,558.31
             734.94,560.49 743.18,567.06 747.00,567.24
             749.05,567.33 757.44,565.00 760.00,564.37
             764.69,563.22 771.17,563.29 774.00,559.00
             779.54,561.06 788.17,559.05 794.00,558.00
             794.00,558.00 782.00,571.00 782.00,571.00
             787.33,569.70 787.20,570.30 792.00,569.83
             808.65,568.22 824.16,571.20 839.00,579.00
             839.00,579.00 840.00,562.00 840.00,562.00
             834.73,565.20 836.16,566.02 834.00,571.00
             833.81,567.76 833.63,563.92 829.89,562.77
             827.09,561.90 823.57,564.13 821.05,560.69
             818.51,557.21 819.70,552.88 819.91,549.00
             819.91,549.00 818.86,536.02 818.86,536.02
             818.03,531.30 813.37,530.56 810.00,533.00
             810.00,533.00 802.00,531.00 802.00,531.00
             802.00,524.34 800.28,516.44 808.00,514.00
             808.00,506.95 809.38,500.84 801.00,499.00
             801.00,496.33 800.68,487.24 801.60,485.31
             802.80,482.78 805.43,483.10 806.99,480.69
             808.91,477.69 807.60,471.35 806.99,468.00
             806.99,468.00 800.00,470.00 800.00,470.00
             800.00,470.00 795.00,464.00 795.00,464.00
             799.20,461.36 799.34,457.64 800.00,453.00
             807.96,452.90 807.20,451.96 813.00,447.00
             812.24,454.57 815.23,453.12 822.00,453.00
             822.00,453.00 826.00,431.00 826.00,431.00
             823.07,433.77 823.12,434.00 823.00,438.00
             819.03,441.78 818.85,443.77 820.00,449.00
             816.88,446.36 817.45,443.97 817.00,440.00
             817.00,440.00 811.00,445.00 811.00,445.00
             811.00,445.00 808.00,441.00 808.00,441.00
             808.00,441.00 809.00,435.00 809.00,435.00
             801.16,434.34 801.96,428.82 807.00,427.00
             807.00,427.00 807.00,423.00 807.00,423.00
             807.00,423.00 822.00,429.00 822.00,429.00
             822.00,429.00 825.00,418.00 825.00,418.00
             818.23,417.92 816.20,417.40 817.00,410.00
             817.00,410.00 815.00,412.00 815.00,412.00
             815.00,412.00 813.00,412.00 813.00,412.00
             814.42,407.98 818.28,402.86 823.01,402.66
             823.01,402.66 832.00,405.00 832.00,405.00
             832.00,405.00 835.00,411.00 835.00,411.00
             835.00,411.00 837.00,403.00 837.00,403.00
             837.00,403.00 833.00,401.00 833.00,401.00
             833.00,401.00 832.00,404.00 832.00,404.00
             832.00,404.00 829.00,399.00 829.00,399.00
             829.00,399.00 826.00,398.00 826.00,398.00
             826.00,398.00 828.00,399.00 828.00,399.00
             827.34,398.16 825.96,396.70 825.86,395.63
             825.37,390.38 835.68,387.27 839.00,385.00
             839.00,385.00 845.00,391.00 845.00,391.00
             846.03,388.43 847.73,385.60 846.09,382.93
             843.55,378.80 836.94,378.07 838.00,373.00
             838.00,373.00 839.00,371.00 839.00,371.00
             839.00,371.00 845.00,367.00 845.00,367.00
             848.32,367.28 849.60,366.75 851.00,370.00
             851.00,370.00 857.00,369.00 857.00,369.00
             857.00,369.00 857.00,379.00 857.00,379.00
             857.00,379.00 866.00,369.00 866.00,369.00
             866.00,369.00 864.00,371.00 864.00,371.00
             864.00,371.00 863.00,371.00 863.00,371.00
             863.00,371.00 866.00,364.00 866.00,364.00
             861.89,362.28 859.27,360.94 857.00,357.00
             857.00,357.00 860.17,358.00 860.17,358.00
             859.90,356.39 859.59,354.84 860.17,353.30
             863.77,346.30 879.90,346.06 880.00,356.00
             884.40,358.47 884.32,361.52 887.00,366.00
             887.00,366.00 888.00,362.00 888.00,362.00
             888.00,362.00 889.00,366.00 889.00,366.00
             892.47,364.14 895.87,362.99 897.00,359.00
             897.00,359.00 899.00,359.00 899.00,359.00
             899.00,359.00 898.00,363.00 898.00,363.00
             898.00,363.00 905.00,360.00 905.00,360.00
             905.00,360.00 899.00,351.00 899.00,351.00
             899.00,351.00 902.00,356.00 902.00,356.00
             902.00,356.00 900.00,355.00 900.00,355.00
             900.00,355.00 903.00,359.00 903.00,359.00
             903.00,359.00 896.00,358.00 896.00,358.00
             896.00,358.00 896.00,357.00 896.00,357.00
             896.00,357.00 894.00,356.00 894.00,356.00
             894.00,356.00 892.00,362.00 892.00,362.00
             892.00,362.00 892.00,358.00 892.00,358.00
             892.00,358.00 888.00,361.00 888.00,361.00
             888.00,361.00 885.00,358.00 885.00,358.00
             888.72,352.32 891.44,346.98 884.00,343.00
             884.00,343.00 885.00,339.00 885.00,339.00
             885.00,339.00 888.00,340.00 888.00,340.00
             888.00,340.00 888.00,334.00 888.00,334.00
             888.00,334.00 895.01,332.27 895.01,332.27
             895.01,332.27 904.00,331.00 904.00,331.00
             904.00,331.00 908.00,334.00 908.00,334.00
             909.41,343.72 911.38,342.69 919.00,341.00
             919.00,341.00 917.00,332.00 917.00,332.00
             917.00,332.00 913.00,331.00 913.00,331.00
             913.00,331.00 919.00,329.00 919.00,329.00
             919.00,329.00 918.00,324.00 918.00,324.00
             918.00,324.00 927.00,321.00 927.00,321.00
             927.00,321.00 934.48,324.19 934.48,324.19
             934.48,324.19 941.00,330.00 941.00,330.00
             937.28,333.64 937.85,335.08 938.00,340.00
             938.00,340.00 947.00,337.00 947.00,337.00
             945.52,340.60 943.61,340.30 940.00,341.00
             940.00,341.00 942.00,351.00 942.00,351.00
             942.00,351.00 936.00,349.00 936.00,349.00
             936.00,349.00 939.00,350.00 939.00,350.00
             939.10,338.11 933.34,340.82 925.00,341.00
             925.00,341.00 926.00,352.00 926.00,352.00
             926.00,352.00 934.00,349.00 934.00,349.00
             934.00,349.00 935.00,352.00 935.00,352.00
             927.90,352.40 928.91,353.47 923.00,355.61
             916.74,357.87 911.30,357.53 908.00,364.00
             908.00,364.00 925.00,358.09 925.00,358.09
             925.00,358.09 940.00,354.28 940.00,354.28
             940.00,354.28 955.00,352.91 955.00,352.91
             955.00,352.91 965.00,352.00 965.00,352.00
             965.00,352.00 988.00,352.91 988.00,352.91
             988.00,352.91 1002.00,354.50 1002.00,354.50
             1002.00,354.50 1016.00,359.00 1016.00,359.00
             1016.00,359.00 1018.00,350.00 1018.00,350.00
             1011.44,349.14 1012.68,346.49 1006.00,351.00
             1006.40,348.17 1009.00,340.86 1004.84,340.04
             1002.97,339.67 998.27,342.26 996.00,343.00
             998.82,337.91 998.93,337.79 999.00,332.00
             989.63,332.55 989.05,331.39 986.00,338.00
             986.00,338.00 993.00,341.00 993.00,341.00
             993.00,341.00 984.00,342.00 984.00,342.00
             984.00,342.00 984.00,339.00 984.00,339.00
             984.00,339.00 978.00,339.00 978.00,339.00
             978.00,339.00 984.00,338.00 984.00,338.00
             981.62,335.56 981.36,335.98 978.00,336.00
             978.00,336.00 977.00,332.00 977.00,332.00
             977.00,332.00 974.00,337.00 974.00,337.00
             973.72,330.99 972.01,322.42 975.00,317.00
             975.00,317.00 984.00,316.00 984.00,316.00
             984.00,316.00 992.00,319.00 992.00,319.00
             992.00,319.00 993.00,327.00 993.00,327.00
             993.00,327.00 991.00,331.00 991.00,331.00
             991.00,331.00 994.00,327.00 994.00,327.00
             994.00,327.00 1000.00,331.00 1000.00,331.00
             1001.55,320.06 1004.77,322.76 1014.00,321.00
             1014.00,321.00 1016.00,326.00 1016.00,326.00
             1024.51,326.09 1019.93,335.11 1017.00,339.00
             1017.00,339.00 1023.00,341.00 1023.00,341.00
             1013.38,343.73 1011.71,338.18 1008.00,347.00
             1008.00,347.00 1016.00,345.00 1016.00,345.00
             1016.00,345.00 1016.00,349.00 1016.00,349.00
             1018.94,347.46 1020.50,346.22 1023.00,349.00
             1023.00,349.00 1018.00,349.00 1018.00,349.00
             1018.00,349.00 1023.00,354.00 1023.00,354.00
             1023.00,354.00 1018.00,360.00 1018.00,360.00
             1021.39,360.78 1021.80,360.67 1023.00,364.00
             1023.00,364.00 1017.00,362.00 1017.00,362.00
             1017.00,362.00 1005.69,396.00 1005.69,396.00
             1005.69,396.00 998.00,414.00 998.00,414.00
             998.00,414.00 979.00,451.77 979.00,451.77
             979.00,451.77 1022.00,391.00 1022.00,391.00
             1022.00,391.00 1012.00,384.00 1012.00,384.00
             1012.00,384.00 1017.00,383.00 1017.00,383.00
             1017.00,383.00 1022.37,394.04 1022.37,394.04
             1022.37,394.04 1017.44,402.00 1017.44,402.00
             1017.44,402.00 979.54,452.62 979.54,452.62
             988.55,456.30 1015.52,417.29 1023.00,410.00
             1023.00,410.00 984.38,455.92 984.38,455.92
             989.88,456.58 1022.90,422.57 1023.00,428.00
             1023.00,428.00 1022.75,431.50 1022.75,431.50
             1022.75,431.50 1001.08,445.85 1001.08,445.85
             1001.08,445.85 984.77,458.00 984.77,458.00
             984.77,458.00 1005.54,453.54 1005.54,453.54
             1005.54,453.54 1023.46,449.00 1023.46,449.00
             1023.46,449.00 985.46,461.15 985.46,461.15
             985.46,461.15 979.33,467.58 984.62,465.15
             990.15,462.61 1018.22,460.56 1024.38,460.54
             1024.38,460.54 985.54,466.54 985.54,466.54
             985.54,466.54 1023.00,470.23 1023.00,470.23
             1012.46,472.85 995.93,471.36 987.23,467.92
             987.23,467.92 997.54,473.85 997.54,473.85
             997.54,473.85 1017.37,484.55 1023.00,488.00
             1023.00,488.00 989.00,471.15 989.00,471.15
             994.09,484.14 1015.97,506.36 1025.08,514.00
             1016.23,508.46 1001.73,492.80 997.08,484.31
             994.24,479.14 991.25,476.71 986.00,469.00
             989.19,485.95 991.94,488.55 1002.10,502.00
             1002.10,502.00 1012.12,516.00 1012.12,516.00
             1016.79,522.35 1025.28,529.71 1022.00,538.00
             1022.00,538.00 1005.00,515.00 1005.00,515.00
             1005.00,515.00 1020.00,549.00 1020.00,549.00
             1020.00,549.00 1022.00,547.00 1022.00,547.00
             1022.00,547.00 1023.00,547.00 1023.00,547.00
             1023.00,547.00 1023.00,576.00 1023.00,576.00
             1023.00,576.00 1022.00,591.00 1022.00,591.00
             1017.21,579.94 1003.96,560.45 1002.00,550.00
             1002.00,550.00 998.00,550.00 998.00,550.00
             998.00,550.00 1012.77,589.00 1012.77,589.00
             1015.62,595.27 1015.98,600.48 1023.00,603.00
             1023.00,603.00 1022.00,610.00 1022.00,610.00
             1022.00,610.00 1018.00,605.00 1018.00,605.00
             1017.66,608.36 1017.16,608.96 1020.00,611.00
             1020.00,611.00 1019.00,608.00 1019.00,608.00
             1019.00,608.00 1023.00,613.00 1023.00,613.00
             1023.00,613.00 1017.00,612.00 1017.00,612.00
             1018.31,615.90 1018.93,616.13 1023.00,616.00
             1020.84,618.30 1019.95,617.64 1017.00,617.00
             1017.00,617.00 1017.00,623.00 1017.00,623.00
             1017.00,623.00 1023.00,624.00 1023.00,624.00
             1017.77,625.69 1018.77,628.49 1024.00,630.18
             1024.00,630.18 1024.09,768.09 1024.09,768.09
             1024.09,768.09 -0.06,768.12 -0.06,768.12 Z" />
</svg>
