<?xml version="1.0" encoding="UTF-8" standalone="no"?>
<!DOCTYPE svg PUBLIC "-//W3C//DTD SVG 20010904//EN"
              "http://www.w3.org/TR/2001/REC-SVG-20010904/DTD/svg10.dtd">

<svg xmlns="http://www.w3.org/2000/svg"
     width="10.6667in" height="42.6667in"
     viewBox="0 0 1024 4096">
  <path id="Selection #2"
        fill="#f4f4f4"
        d="M 85.00,25.00
           C 88.23,30.55 87.00,44.19 87.04,51.00
             87.04,51.00 87.04,65.00 87.04,65.00
             87.04,65.00 88.00,77.00 88.00,77.00
             88.00,77.00 88.00,105.00 88.00,105.00
             88.02,116.44 89.05,112.40 91.31,120.00
             91.31,120.00 92.25,127.00 92.25,127.00
             93.44,132.21 95.38,131.96 94.00,138.00
             94.00,138.00 107.00,139.00 107.00,139.00
             107.00,139.00 105.00,144.00 105.00,144.00
             105.00,144.00 111.00,146.00 111.00,146.00
             111.00,146.00 111.00,148.00 111.00,148.00
             111.00,148.00 108.00,149.00 108.00,149.00
             108.00,149.00 109.00,151.00 109.00,151.00
             109.00,151.00 106.00,156.00 106.00,156.00
             106.00,156.00 121.00,155.00 121.00,155.00
             121.00,155.00 121.00,157.00 121.00,157.00
             113.16,158.03 104.48,156.08 107.00,167.00
             107.00,167.00 100.00,169.00 100.00,169.00
             104.00,169.01 111.53,168.73 113.19,173.22
             114.27,175.34 113.20,180.48 113.19,183.00
             108.24,183.00 101.93,181.63 99.00,186.00
             99.00,186.00 103.00,185.00 103.00,185.00
             103.00,185.00 104.00,195.00 104.00,195.00
             100.42,195.48 95.35,195.79 93.31,199.23
             91.24,202.72 91.95,220.03 92.00,225.00
             92.00,225.00 93.00,238.00 93.00,238.00
             93.00,238.00 93.00,253.00 93.00,253.00
             93.00,253.00 94.00,269.00 94.00,269.00
             94.00,269.00 94.00,283.00 94.00,283.00
             94.00,283.00 95.00,298.00 95.00,298.00
             95.00,298.00 95.00,323.00 95.00,323.00
             95.00,323.00 96.00,340.00 96.00,340.00
             96.00,340.00 96.00,374.00 96.00,374.00
             96.00,374.00 97.00,391.00 97.00,391.00
             97.00,391.00 97.00,408.00 97.00,408.00
             97.00,408.00 97.96,420.00 97.96,420.00
             97.96,420.00 97.96,436.00 97.96,436.00
             97.96,436.00 101.00,436.00 101.00,436.00
             101.00,436.00 101.00,431.00 101.00,431.00
             101.00,431.00 114.00,430.00 114.00,430.00
             114.00,430.00 114.00,385.00 114.00,385.00
             114.00,385.00 113.00,368.00 113.00,368.00
             113.00,368.00 113.59,349.59 113.59,349.59
             113.59,349.59 116.00,348.00 116.00,348.00
             113.42,343.10 114.00,341.35 114.00,336.00
             114.00,336.00 132.00,341.00 132.00,341.00
             132.00,341.00 132.00,358.00 132.00,358.00
             132.00,358.00 131.00,374.00 131.00,374.00
             131.00,374.00 131.00,412.00 131.00,412.00
             131.00,412.00 130.00,428.00 130.00,428.00
             130.00,428.00 130.00,460.00 130.00,460.00
             130.00,460.00 135.00,460.00 135.00,460.00
             135.00,460.00 135.00,395.00 135.00,395.00
             135.00,395.00 134.00,380.00 134.00,380.00
             134.00,380.00 134.00,314.00 134.00,314.00
             139.16,316.44 142.37,319.45 144.00,325.00
             144.00,325.00 153.00,326.00 153.00,326.00
             153.00,326.00 153.00,332.00 153.00,332.00
             153.00,332.00 165.00,332.00 165.00,332.00
             165.00,332.00 164.00,342.00 164.00,342.00
             164.00,342.00 173.00,342.00 173.00,342.00
             173.00,342.00 173.00,352.00 173.00,352.00
             173.00,352.00 186.00,352.00 186.00,352.00
             186.00,352.00 186.00,361.00 186.00,361.00
             186.00,361.00 192.00,361.00 192.00,361.00
             192.00,361.00 191.00,375.00 191.00,375.00
             191.00,375.00 202.00,374.00 202.00,374.00
             200.16,384.28 200.98,406.50 201.00,418.00
             201.01,423.04 200.26,426.15 205.00,429.00
             205.00,429.00 203.00,425.00 203.00,425.00
             203.00,425.00 207.00,425.00 207.00,425.00
             207.00,425.00 208.00,406.00 208.00,406.00
             208.00,406.00 216.00,406.00 216.00,406.00
             217.87,391.80 217.12,376.33 216.75,362.00
             216.75,362.00 216.75,353.00 216.75,353.00
             216.25,341.54 214.04,325.86 218.00,315.00
             223.45,318.39 229.77,319.75 236.00,321.00
             236.28,331.99 240.79,331.00 250.00,331.00
             250.00,331.00 250.00,344.00 250.00,344.00
             250.00,344.00 262.00,344.00 262.00,344.00
             262.00,344.00 262.00,353.00 262.00,353.00
             262.00,353.00 272.00,354.00 272.00,354.00
             272.00,354.00 271.00,365.00 271.00,365.00
             271.00,365.00 281.00,365.00 281.00,365.00
             281.00,365.00 281.00,374.00 281.00,374.00
             281.00,374.00 286.00,374.00 286.00,374.00
             286.00,374.00 286.00,396.00 286.00,396.00
             285.99,405.06 283.49,415.16 286.00,424.00
             286.00,424.00 288.28,402.00 288.28,402.00
             288.28,402.00 290.43,385.00 290.43,385.00
             290.43,385.00 292.98,369.00 292.98,369.00
             292.98,369.00 292.98,356.00 292.98,356.00
             292.98,356.00 299.19,343.00 299.19,343.00
             299.19,343.00 301.00,327.00 301.00,327.00
             301.00,327.00 301.00,283.00 301.00,283.00
             301.00,283.00 302.91,269.00 302.91,269.00
             302.91,269.00 302.91,255.00 302.91,255.00
             302.91,255.00 305.00,255.00 305.00,255.00
             305.00,255.00 306.00,274.00 306.00,274.00
             306.00,274.00 309.22,240.00 309.22,240.00
             310.40,230.62 313.35,213.03 312.00,204.00
             312.00,204.00 315.00,203.00 315.00,203.00
             315.00,203.00 313.00,193.00 313.00,193.00
             313.00,193.00 315.88,192.00 315.88,192.00
             313.03,186.14 314.70,182.05 315.88,176.00
             315.99,174.65 316.02,172.67 316.59,171.48
             317.25,170.11 317.94,169.87 319.00,169.00
             314.76,165.20 318.28,160.12 318.22,156.93
             318.19,154.82 316.04,152.82 315.00,151.00
             315.00,151.00 320.00,150.00 320.00,150.00
             320.00,150.00 315.00,143.00 315.00,143.00
             315.00,143.00 323.00,143.00 323.00,143.00
             323.00,143.00 324.00,145.00 324.00,145.00
             324.00,145.00 323.00,146.00 323.00,146.00
             328.50,146.14 330.03,146.10 333.00,150.80
             333.00,150.80 328.09,150.80 328.09,150.80
             317.75,152.04 325.31,168.58 323.00,177.00
             325.76,179.37 325.89,187.10 324.00,190.00
             327.38,194.41 327.22,201.40 327.16,206.83
             327.07,213.59 329.46,216.32 326.00,223.00
             329.86,224.28 328.98,232.45 329.58,236.00
             330.74,242.85 332.22,254.15 331.98,261.00
             331.62,269.88 331.20,265.04 331.98,275.00
             331.98,275.00 334.00,275.00 334.00,275.00
             334.00,275.00 335.16,255.00 335.16,255.00
             335.16,255.00 335.16,263.00 335.16,263.00
             335.16,263.00 338.00,283.00 338.00,283.00
             338.00,283.00 338.00,330.00 338.00,330.00
             338.03,348.16 344.97,341.95 345.00,358.00
             345.00,358.00 345.00,393.00 345.00,393.00
             345.00,395.38 344.65,399.48 346.60,401.17
             348.21,402.58 350.97,402.14 353.00,402.45
             358.54,403.28 356.64,403.93 364.00,404.00
             364.00,404.00 364.00,448.00 364.00,448.00
             364.00,448.00 370.65,439.39 370.65,439.39
             370.65,439.39 381.00,434.00 381.00,434.00
             381.00,434.00 393.00,448.00 393.00,448.00
             393.00,448.00 393.00,403.00 393.00,403.00
             393.01,400.44 392.81,397.35 394.02,395.04
             395.46,392.31 401.84,387.12 405.00,387.12
             408.25,387.12 415.70,393.23 417.18,396.01
             418.91,399.06 417.58,406.37 417.18,410.00
             417.18,410.00 417.18,437.00 417.18,437.00
             417.18,437.00 422.00,437.00 422.00,437.00
             422.00,437.00 423.00,400.00 423.00,400.00
             428.85,399.98 431.88,400.67 433.00,394.00
             442.45,393.67 441.00,389.92 441.00,380.00
             441.00,380.00 456.00,378.00 456.00,378.00
             457.45,386.66 463.39,383.20 471.00,384.00
             471.00,384.00 472.00,371.00 472.00,371.00
             478.75,371.81 477.98,373.95 478.00,380.00
             478.00,380.00 487.00,381.00 487.00,381.00
             487.00,381.00 485.00,388.00 485.00,388.00
             492.19,388.08 493.13,388.64 492.00,396.00
             496.42,395.21 500.09,393.82 503.00,398.00
             503.00,398.00 514.00,397.00 514.00,397.00
             514.00,397.00 514.00,402.00 514.00,402.00
             514.00,402.00 521.00,402.00 521.00,402.00
             521.00,402.00 521.00,443.00 521.00,443.00
             521.00,443.00 529.00,445.00 529.00,445.00
             529.00,445.00 529.96,421.00 529.96,421.00
             530.00,418.39 529.06,414.32 529.96,412.38
             531.39,410.00 537.36,406.87 540.00,406.43
             545.04,405.59 551.55,410.62 556.00,413.00
             554.74,420.01 554.91,426.90 555.00,434.00
             555.04,436.63 554.93,440.33 557.43,441.98
             559.54,443.35 564.43,442.21 567.00,441.98
             567.00,441.98 568.00,446.00 568.00,446.00
             568.00,446.00 573.00,445.00 573.00,445.00
             573.01,429.86 576.78,413.56 585.57,401.00
             593.10,390.23 597.78,389.65 600.25,385.83
             600.25,385.83 603.48,377.00 603.48,377.00
             605.73,369.41 605.48,358.15 605.99,356.00
             605.36,358.67 611.19,338.70 609.72,342.24
             610.82,339.59 612.85,339.13 613.66,334.98
             614.59,330.22 611.72,322.79 617.00,315.00
             620.69,327.05 617.55,329.96 618.84,335.00
             618.84,335.00 622.31,343.00 622.31,343.00
             622.31,343.00 625.59,357.17 625.59,357.17
             625.59,357.17 625.09,363.00 625.09,363.00
             624.68,370.54 628.94,379.28 628.00,386.00
             646.00,393.00 659.46,422.68 655.00,441.00
             655.00,441.00 662.00,436.00 662.00,436.00
             662.00,436.00 660.00,442.00 660.00,442.00
             660.00,442.00 665.00,435.00 665.00,435.00
             665.00,435.00 683.17,447.44 683.17,447.44
             683.17,447.44 703.00,448.00 703.00,448.00
             703.00,448.00 703.00,431.00 703.00,431.00
             703.00,431.00 704.00,415.00 704.00,415.00
             704.00,415.00 704.00,377.00 704.00,377.00
             704.00,377.00 705.00,362.00 705.00,362.00
             705.00,362.00 705.00,345.00 705.00,345.00
             705.02,329.21 708.31,325.42 708.87,320.96
             708.87,320.96 709.90,304.00 709.90,304.00
             711.38,297.48 713.17,297.24 714.74,292.96
             715.82,290.02 717.45,278.57 717.84,275.00
             717.84,275.00 721.00,239.00 721.00,239.00
             721.00,239.00 722.84,215.00 722.84,215.00
             723.35,210.19 724.56,194.61 726.00,191.00
             726.00,191.00 727.00,199.00 727.00,199.00
             727.00,194.56 726.28,191.69 729.00,188.00
             729.00,188.00 728.01,201.00 728.01,201.00
             728.01,201.00 729.00,218.00 729.00,218.00
             729.00,218.00 730.00,245.00 730.00,245.00
             730.00,245.00 731.00,259.00 731.00,259.00
             731.00,259.00 733.28,292.00 733.28,292.00
             733.28,292.00 734.21,302.00 734.21,302.00
             734.21,302.00 735.00,314.00 735.00,314.00
             735.00,314.00 753.00,315.00 753.00,315.00
             753.00,315.00 754.69,301.00 754.69,301.00
             754.69,301.00 754.69,295.00 754.69,295.00
             754.69,295.00 756.84,280.00 756.84,280.00
             756.84,280.00 758.00,260.00 758.00,260.00
             758.00,260.00 759.91,239.00 759.91,239.00
             759.91,239.00 762.58,208.00 762.58,208.00
             762.58,208.00 764.00,197.00 764.00,197.00
             764.00,197.00 765.00,204.00 765.00,204.00
             765.00,204.00 765.00,202.00 765.00,202.00
             765.00,202.00 766.00,202.00 766.00,202.00
             766.00,202.00 765.00,207.00 765.00,207.00
             768.24,208.16 766.89,214.06 767.17,217.00
             767.17,217.00 768.00,246.00 768.00,246.00
             768.01,255.58 769.32,255.58 769.31,260.00
             769.31,260.00 769.31,267.00 769.31,267.00
             769.31,267.00 771.34,290.00 771.34,290.00
             771.34,290.00 776.46,306.00 776.46,306.00
             776.46,306.00 776.46,313.00 776.46,313.00
             778.59,326.93 780.98,327.78 781.00,344.00
             781.00,344.00 781.00,392.00 781.00,392.00
             781.00,398.86 780.25,410.84 782.00,417.00
             785.02,413.63 794.52,415.00 799.00,415.00
             799.00,415.00 821.00,415.00 821.00,415.00
             821.00,415.00 831.42,414.49 831.42,414.49
             831.42,414.49 845.00,415.00 845.00,415.00
             845.00,415.00 846.00,441.00 846.00,441.00
             846.00,441.00 850.00,441.00 850.00,441.00
             850.00,441.00 851.00,437.00 851.00,437.00
             851.00,437.00 851.00,441.00 851.00,441.00
             851.00,441.00 855.00,438.00 855.00,438.00
             855.00,438.00 856.00,441.00 856.00,441.00
             856.00,441.00 864.00,441.00 864.00,441.00
             864.00,441.00 865.00,438.00 865.00,438.00
             865.00,438.00 869.00,441.00 869.00,441.00
             869.00,441.00 870.00,438.00 870.00,438.00
             874.28,445.59 884.12,440.35 892.00,443.00
             894.33,440.40 896.68,441.01 900.00,441.00
             900.00,441.00 918.00,441.00 918.00,441.00
             918.00,441.00 917.00,449.00 917.00,449.00
             921.39,447.60 921.02,446.82 923.00,443.00
             924.45,447.56 925.65,447.57 930.00,449.00
             930.00,449.00 928.00,461.00 928.00,461.00
             928.00,461.00 934.00,461.00 934.00,461.00
             933.68,457.41 932.83,445.38 934.99,442.74
             936.50,440.89 939.84,441.03 942.00,441.00
             942.00,441.00 963.00,441.00 963.00,441.00
             965.72,441.00 971.68,440.75 974.00,441.60
             976.19,442.40 977.29,443.56 979.00,445.00
             979.00,445.00 980.00,441.00 980.00,441.00
             980.00,441.00 991.00,441.00 991.00,441.00
             991.00,441.00 989.00,452.00 989.00,452.00
             989.00,452.00 993.00,453.00 993.00,453.00
             993.00,453.00 994.00,441.00 994.00,441.00
             994.00,441.00 1008.00,441.00 1008.00,441.00
             1008.00,444.62 1007.17,454.84 1009.60,457.27
             1011.47,459.13 1016.42,459.65 1019.00,460.00
             1019.00,460.00 1020.00,441.00 1020.00,441.00
             1020.00,441.00 1024.00,441.00 1024.00,441.00
             1024.00,441.00 1024.00,768.00 1024.00,768.00
             1024.00,768.00 0.00,768.00 0.00,768.00
             0.00,768.00 0.00,542.00 0.00,542.00
             0.00,542.00 0.00,476.00 0.00,476.00
             0.00,469.62 -0.93,450.87 1.00,446.00
             1.00,446.00 10.00,459.00 10.00,459.00
             13.94,449.53 11.11,443.40 11.00,434.00
             11.00,434.00 11.00,418.00 11.00,418.00
             11.00,418.00 10.00,403.00 10.00,403.00
             10.00,403.00 9.00,342.00 9.00,342.00
             9.00,342.00 25.00,354.29 25.00,354.29
             25.00,354.29 42.00,355.00 42.00,355.00
             42.00,355.00 42.00,366.00 42.00,366.00
             42.00,366.00 51.00,367.00 51.00,367.00
             51.00,367.00 51.00,400.00 51.00,400.00
             51.00,400.00 50.00,417.00 50.00,417.00
             49.99,422.65 48.52,427.91 54.00,431.00
             54.00,431.00 55.00,422.00 55.00,422.00
             55.00,422.00 71.00,422.00 71.00,422.00
             71.00,422.00 76.00,342.00 76.00,342.00
             76.00,342.00 76.91,332.00 76.91,332.00
             76.91,332.00 78.09,308.00 78.09,308.00
             78.09,308.00 80.00,281.00 80.00,281.00
             80.00,281.00 81.00,271.00 81.00,271.00
             81.00,271.00 81.00,260.00 81.00,260.00
             81.00,260.00 82.00,248.00 82.00,248.00
             82.00,248.00 82.00,222.00 82.00,222.00
             82.00,222.00 82.96,210.00 82.96,210.00
             82.96,210.00 82.96,196.00 82.96,196.00
             82.96,196.00 70.00,196.00 70.00,196.00
             69.26,191.14 67.82,184.05 75.00,185.00
             69.69,181.02 63.19,182.99 60.74,181.01
             59.53,180.03 59.24,178.43 59.04,176.98
             57.53,166.41 67.06,170.25 75.00,168.00
             75.00,168.00 64.00,167.00 64.00,167.00
             64.00,167.00 75.00,166.00 75.00,166.00
             75.00,166.00 74.00,161.00 74.00,161.00
             74.00,161.00 73.00,164.00 73.00,164.00
             68.64,156.26 60.63,162.13 56.00,155.00
             56.00,155.00 75.00,156.00 75.00,156.00
             75.00,156.00 75.00,154.00 75.00,154.00
             70.39,153.77 59.21,150.58 66.16,144.55
             67.39,143.49 69.51,142.67 71.00,142.00
             67.79,141.72 67.27,142.06 66.00,139.00
             73.92,138.73 75.28,137.94 78.53,131.00
             78.53,131.00 80.80,126.00 80.80,126.00
             80.80,126.00 81.61,120.17 81.61,120.17
             83.25,115.23 84.98,118.55 85.00,108.00
             85.00,108.00 85.00,25.00 85.00,25.00 Z
           M 81.00,136.00
           C 81.00,136.00 80.00,136.00 80.00,136.00
             80.00,136.00 81.00,137.00 81.00,137.00
             81.00,137.00 81.00,136.00 81.00,136.00 Z
           M 94.00,136.00
           C 94.00,136.00 93.00,136.00 93.00,136.00
             93.00,136.00 94.00,137.00 94.00,137.00
             94.00,137.00 94.00,136.00 94.00,136.00 Z
           M 105.00,153.00
           C 105.00,153.00 96.00,154.00 96.00,154.00
             96.00,154.00 96.00,156.00 96.00,156.00
             100.15,155.98 102.50,156.73 105.00,153.00 Z
           M 104.00,160.00
           C 104.00,160.00 97.00,164.00 97.00,164.00
             97.00,164.00 95.00,165.00 95.00,165.00
             95.00,165.00 104.00,166.00 104.00,166.00
             104.00,166.00 104.00,160.00 104.00,160.00 Z
           M 727.00,200.00
           C 727.00,200.00 726.00,200.00 726.00,200.00
             726.00,200.00 727.00,201.00 727.00,201.00
             727.00,201.00 727.00,200.00 727.00,200.00 Z
           M 321.00,202.00
           C 321.00,202.00 320.00,202.00 320.00,202.00
             320.00,202.00 321.00,203.00 321.00,203.00
             321.00,203.00 321.00,202.00 321.00,202.00 Z
           M 320.00,206.00
           C 319.24,208.34 319.17,208.37 321.00,210.00
             321.00,210.00 320.00,206.00 320.00,206.00 Z
           M 321.00,220.00
           C 321.00,220.00 319.00,220.00 319.00,220.00
             319.00,220.00 321.00,225.00 321.00,225.00
             321.00,225.00 321.00,220.00 321.00,220.00 Z
           M 321.00,226.00
           C 321.00,226.00 319.00,230.00 319.00,230.00
             319.00,230.00 322.00,230.00 322.00,230.00
             322.00,230.00 321.00,226.00 321.00,226.00 Z
           M 316.00,229.00
           C 316.00,229.00 315.00,229.00 315.00,229.00
             315.00,229.00 316.00,230.00 316.00,230.00
             316.00,230.00 316.00,229.00 316.00,229.00 Z
           M 321.00,232.00
           C 321.00,232.00 319.00,237.00 319.00,237.00
             322.11,235.69 321.69,235.13 321.00,232.00 Z
           M 617.00,361.00
           C 615.75,364.17 615.75,365.83 617.00,369.00
             617.00,369.00 617.00,361.00 617.00,361.00 Z
           M 614.00,362.00
           C 614.00,362.00 615.00,370.00 615.00,370.00
             615.00,370.00 614.00,362.00 614.00,362.00 Z
           M 786.00,416.00
           C 786.00,416.00 785.00,416.00 785.00,416.00
             785.00,416.00 786.00,417.00 786.00,417.00
             786.00,417.00 786.00,416.00 786.00,416.00 Z
           M 790.00,416.00
           C 790.00,416.00 789.00,416.00 789.00,416.00
             789.00,416.00 790.00,417.00 790.00,417.00
             790.00,417.00 790.00,416.00 790.00,416.00 Z
           M 800.00,416.00
           C 800.00,416.00 799.00,416.00 799.00,416.00
             799.00,416.00 800.00,417.00 800.00,417.00
             800.00,417.00 800.00,416.00 800.00,416.00 Z
           M 804.00,416.00
           C 804.00,416.00 803.00,416.00 803.00,416.00
             803.00,416.00 804.00,417.00 804.00,417.00
             804.00,417.00 804.00,416.00 804.00,416.00 Z
           M 809.00,416.00
           C 809.00,416.00 808.00,416.00 808.00,416.00
             808.00,416.00 809.00,417.00 809.00,417.00
             809.00,417.00 809.00,416.00 809.00,416.00 Z
           M 811.00,416.00
           C 811.00,416.00 810.00,416.00 810.00,416.00
             810.00,416.00 811.00,417.00 811.00,417.00
             811.00,417.00 811.00,416.00 811.00,416.00 Z
           M 813.00,416.00
           C 813.00,416.00 812.00,416.00 812.00,416.00
             812.00,416.00 813.00,417.00 813.00,417.00
             813.00,417.00 813.00,416.00 813.00,416.00 Z
           M 815.00,416.00
           C 815.00,416.00 814.00,416.00 814.00,416.00
             814.00,416.00 815.00,417.00 815.00,417.00
             815.00,417.00 815.00,416.00 815.00,416.00 Z
           M 818.00,416.00
           C 818.00,416.00 817.00,416.00 817.00,416.00
             817.00,416.00 818.00,417.00 818.00,417.00
             818.00,417.00 818.00,416.00 818.00,416.00 Z
           M 822.00,416.00
           C 822.00,416.00 821.00,416.00 821.00,416.00
             821.00,416.00 822.00,417.00 822.00,417.00
             822.00,417.00 822.00,416.00 822.00,416.00 Z
           M 826.00,416.00
           C 826.00,416.00 825.00,416.00 825.00,416.00
             825.00,416.00 826.00,417.00 826.00,417.00
             826.00,417.00 826.00,416.00 826.00,416.00 Z
           M 828.00,416.00
           C 828.00,416.00 827.00,416.00 827.00,416.00
             827.00,416.00 828.00,417.00 828.00,417.00
             828.00,417.00 828.00,416.00 828.00,416.00 Z
           M 830.00,416.00
           C 830.00,416.00 829.00,416.00 829.00,416.00
             829.00,416.00 830.00,417.00 830.00,417.00
             830.00,417.00 830.00,416.00 830.00,416.00 Z
           M 832.00,416.00
           C 832.00,416.00 831.00,416.00 831.00,416.00
             831.00,416.00 832.00,417.00 832.00,417.00
             832.00,417.00 832.00,416.00 832.00,416.00 Z
           M 835.00,416.00
           C 835.00,416.00 834.00,416.00 834.00,416.00
             834.00,416.00 835.00,417.00 835.00,417.00
             835.00,417.00 835.00,416.00 835.00,416.00 Z
           M 837.00,416.00
           C 837.00,416.00 836.00,416.00 836.00,416.00
             836.00,416.00 837.00,417.00 837.00,417.00
             837.00,417.00 837.00,416.00 837.00,416.00 Z
           M 839.00,416.00
           C 839.00,416.00 838.00,416.00 838.00,416.00
             838.00,416.00 839.00,417.00 839.00,417.00
             839.00,417.00 839.00,416.00 839.00,416.00 Z
           M 841.00,416.00
           C 841.00,416.00 840.00,416.00 840.00,416.00
             840.00,416.00 841.00,417.00 841.00,417.00
             841.00,417.00 841.00,416.00 841.00,416.00 Z
           M 844.00,416.00
           C 844.00,416.00 843.00,416.00 843.00,416.00
             843.00,416.00 844.00,417.00 844.00,417.00
             844.00,417.00 844.00,416.00 844.00,416.00 Z
           M 380.00,436.00
           C 380.00,436.00 379.00,436.00 379.00,436.00
             379.00,436.00 380.00,437.00 380.00,437.00
             380.00,437.00 380.00,436.00 380.00,436.00 Z
           M 888.00,439.00
           C 888.00,439.00 889.00,439.00 889.00,439.00
             889.00,439.00 888.00,440.00 888.00,440.00
             888.00,440.00 888.00,439.00 888.00,439.00 Z
           M 921.00,441.00
           C 921.00,441.00 922.00,441.00 922.00,441.00
             922.00,441.00 921.00,442.00 921.00,442.00
             921.00,442.00 921.00,441.00 921.00,441.00 Z
           M 662.00,443.00
           C 662.00,443.00 662.00,448.00 662.00,448.00
             662.00,448.00 662.00,443.00 662.00,443.00 Z
           M 918.00,450.00
           C 916.63,453.57 916.60,458.47 918.00,462.00
             918.00,462.00 919.00,458.00 919.00,458.00
             919.00,458.00 919.00,462.00 919.00,462.00
             923.98,458.26 921.73,453.75 918.00,450.00 Z" />
</svg>
