<svg
  filter="drop-shadow(1px 2px 2px rgb(0 0 0 / 0.1))"
  xmlns="http://www.w3.org/2000/svg"
  height="148"
  viewBox="0 0 250 400">
    <path
      id="balloon"
      fill="#E3000F"
      d="M 175.85,206.42
          C 198.05,186.12 208.59,171.32 221.58,148.76
            238.99,118.52 245.58,89.96 240.92,64.74
            236.89,42.88 221.71,23.94 202.21,16.57
            197.86,14.92 188.51,13.02 183.38,12.74
            171.09,12.05 161.39,14.48 150.94,20.83
            139.68,27.64 131.80,36.49 125.56,49.35
            123.35,53.86 123.00,54.94 120.57,64.68
            118.82,71.51 117.83,74.99 117.58,74.75
            117.37,74.57 115.64,72.67 113.65,70.57
            101.15,57.15 86.94,49.06 71.79,46.80
            56.48,44.50 44.50,46.92 31.82,54.88
            19.59,62.61 11.33,72.84 6.69,86.05
            2.96,96.67 2.31,108.50 4.73,120.31
            7.06,131.45 12.60,142.92 21.18,154.14
            27.57,162.53 40.89,174.76 51.27,181.86
            76.81,199.22 104.96,207.97 144.51,216.19
            144.51,216.19 147.17,216.51 147.25,218.33
            147.14,220.42 147.05,220.36 146.81,221.63
            146.36,223.76 145.76,225.92 144.25,229.55
            142.81,233.18 141.83,236.35 142.06,236.57
            142.81,237.34 152.34,236.88 156.95,235.90
            159.37,235.44 161.64,235.22 161.86,235.52
            162.77,236.43 162.39,245.27 161.34,247.99
            160.73,249.43 157.78,254.41 154.76,259.03
            148.41,268.63 146.59,272.48 145.31,278.91
            144.10,285.11 145.38,291.99 149.24,299.93
            156.42,314.89 169.65,323.96 205.86,338.70
            229.52,348.38 238.51,353.82 240.93,359.87
            242.22,363.12 243.66,363.87 243.66,361.38
            243.66,354.20 233.30,347.40 204.35,335.68
            188.85,329.40 176.46,323.43 169.57,318.90
            158.69,311.87 150.83,301.36 147.95,290.25
            145.61,281.25 147.73,273.77 156.12,260.99
            163.60,249.73 164.59,247.31 164.66,240.13
            164.66,240.13 164.74,234.16 164.74,234.16
            164.74,234.16 168.59,232.80 168.59,232.80
            173.28,231.21 175.62,230.00 175.62,229.17
            175.62,228.79 172.97,225.92 169.80,222.82
            166.55,219.64 164.13,216.92 164.28,216.78
            164.97,216.09 178.11,222.22 181.06,224.56
            184.09,226.98 185.67,227.06 184.24,224.71
            182.88,222.59 177.44,219.27 170.86,216.62
            170.86,216.62 164.66,214.13 164.66,214.13
            164.66,214.13 168.29,212.54 168.29,212.54
            174.41,209.89 180.31,208.45 184.84,208.45
            189.08,208.53 190.29,207.93 188.32,206.72
            187.11,205.96 180.39,206.19 177.13,207.10
            177.13,207.10 174.48,207.85 174.48,207.85
            174.48,207.85 175.85,206.42 175.85,206.42 Z"
  />
</svg>