<svg xmlns="http://www.w3.org/2000/svg" viewBox="-12000 -8500 5000 8000">
  <path d="M -9905 -7989 c 103 14 267 56 370 96 c 587 225 1040 735 1205 1357 c 54 205 64 288 64 556 c 1 281 -12 389 -74 636 c -82 322 -219 614 -403 859 c -75 99 -253 277 -330 329 c -31 22 -55 41 -53 43 c 2 2 29 -3 62 -12 c 106 -27 220 -15 212 23 c -2 11 -11 16 -23 13 c -55 -11 -156 -3 -225 18 c -100 31 -233 82 -226 88 c 2 3 52 24 110 48 c 163 66 276 138 276 176 c 0 28 -24 23 -61 -11 c -18 -16 -63 -45 -99 -64 c -79 -42 -241 -108 -248 -101 c -3 2 50 58 116 124 c 109 109 119 121 104 134 c -25 21 -68 41 -144 66 l -68 23 l 6 67 c 8 88 -9 189 -46 261 c -16 32 -74 126 -128 208 c -108 164 -144 242 -163 347 c -34 197 58 432 241 616 c 167 168 368 280 895 498 c 351 145 415 174 527 240 c 136 80 211 164 220 246 c 2 24 -1 30 -17 30 c -14 0 -21 -9 -26 -33 c -25 -124 -192 -227 -700 -436 c -508 -209 -704 -312 -888 -467 c -173 -147 -301 -405 -301 -608 c -0 -149 48 -268 206 -506 c 116 -174 136 -226 135 -350 c -0 -47 -2 -89 -5 -93 c -3 -5 -43 0 -88 10 c -83 19 -290 30 -304 16 c -3 -4 16 -69 45 -145 c 34 -91 49 -146 45 -161 c -4 -15 -0 -29 11 -42 c 10 -11 16 -22 13 -25 c -2 -3 -58 -7 -124 -9 c -212 -8 -392 -56 -609 -161 c -667 -323 -1205 -1065 -1310 -1806 c -19 -137 -19 -399 1 -540 c 107 -771 639 -1396 1309 -1541 c 105 -23 379 -32 490 -17 z" fill="#000000"/>
</svg>