<?xml version="1.0" encoding="UTF-8" standalone="no"?>
<!DOCTYPE svg PUBLIC "-//W3C//DTD SVG 20010904//EN"
              "http://www.w3.org/TR/2001/REC-SVG-20010904/DTD/svg10.dtd">

<svg xmlns="http://www.w3.org/2000/svg"
     width="3.53333in" height="0.255556in"
     viewBox="0 0 318 23">
  <path id="underline"
        fill="none" stroke="#E3000F" stroke-width="3"
        d="M 298.72,18.83M 1.13,22.90
           C 37.35,18.27 94.92,12.55 148.78,8.36
             202.66,4.17 252.73,1.54 274.00,3.04
             274.00,3.04 274.00,3.03 274.00,3.03
             286.57,3.91 296.14,5.18 302.98,6.65
             306.40,7.38 309.12,8.16 311.18,8.96
             313.26,9.76 314.59,10.56 315.31,11.27
             315.66,11.62 315.82,11.91 315.89,12.14
             315.95,12.35 315.95,12.55 315.86,12.77
             315.66,13.29 315.00,13.98 313.59,14.75
             310.80,16.27 305.80,17.70 298.72,18.83" />
</svg>
