<?xml version="1.0" encoding="UTF-8" standalone="no"?>
<!DOCTYPE svg PUBLIC "-//W3C//DTD SVG 20010904//EN"
              "http://www.w3.org/TR/2001/REC-SVG-20010904/DTD/svg10.dtd">

<svg xmlns="http://www.w3.org/2000/svg"
     width="19.2in" height="5.25556in"
     viewBox="0 0 1728 473">
  <path id="Imported Path #2"
        fill="white"
        d="M 389.00,271.69
           C 161.80,92.30 -436.00,201.31 -628.00,205.32
             -628.00,205.32 0.00,473.00 0.00,473.00
             0.00,473.00 1728.00,473.00 1728.00,473.00
             1728.00,473.00 2048.00,593.73 2048.00,593.73
             1936.00,489.62 1539.79,279.64 1351.00,318.08
             1115.00,366.14 672.99,495.92 389.00,271.69 Z" />
  <path id="Imported Path #1"
        fill="none" stroke="#E3000F" stroke-opacity="0.2" stroke-width="2"
        d="M -103.00,12.70
           C 67.18,-59.38 141.18,194.89 243.00,281.00
             353.04,374.02 482.66,457.17 708.83,427.14
             934.99,397.12 1389.76,96.80 1605.76,212.92
             1698.64,262.85 1746.43,401.97 1805.74,385.93" />
</svg>
