<?xml version="1.0" encoding="UTF-8" standalone="no"?>
<!DOCTYPE svg PUBLIC "-//W3C//DTD SVG 20010904//EN"
              "http://www.w3.org/TR/2001/REC-SVG-20010904/DTD/svg10.dtd">

<svg xmlns="http://www.w3.org/2000/svg"
     width="2.42222in" height="2.11111in"
     viewBox="0 0 218 190">
  <path id="Imported Path"
        fill="none" stroke="#E3000F" stroke-width="2"
        d="M 54.97,164.50
           C -7.75,135.79 2.01,77.43 15.68,51.52
             25.63,32.67 46.97,17.06 57.04,13.70
             66.16,11.32 86.68,10.21 95.75,24.79
             104.82,39.38 133.06,39.69 146.04,38.03
             159.84,34.76 189.97,36.98 200.05,72.04
             210.14,107.10 185.09,141.08 171.30,153.69
             158.66,169.25 117.69,193.20 54.97,164.50 Z" />
  <path id="image0_429_923"
        fill="#E3000F" fill-opacity="0.2"
        d="M 117.34,187.55
           C 77.33,183.94 32.78,153.27 22.06,113.33
             18.47,99.96 19.19,84.36 22.43,70.97
             28.51,45.86 45.15,25.27 66.78,11.81
             78.83,4.31 94.31,-1.08 108.50,3.15
             126.41,8.47 127.41,27.37 141.28,38.86
             148.16,44.57 156.51,45.46 164.94,47.41
             185.13,52.08 202.20,53.95 211.13,76.12
             217.39,91.62 212.06,113.06 204.69,127.35
             191.88,152.22 167.09,177.70 139.66,185.19
             132.11,187.25 125.10,187.66 117.34,187.55 Z" />
</svg>
