<?xml version="1.0" encoding="UTF-8" standalone="no"?>
<!DOCTYPE svg PUBLIC "-//W3C//DTD SVG 20010904//EN"
              "http://www.w3.org/TR/2001/REC-SVG-20010904/DTD/svg10.dtd">

<svg xmlns="http://www.w3.org/2000/svg"
     width="2.29167in" height="2.13889in"
     viewBox="0 0 234 228">
  <path id="Selection"
        fill="#E3000F" fill-opacity="0.1"
        d="M 118.34,206.55
           C 78.33,202.94 33.78,172.27 23.06,132.33
             19.47,118.96 20.19,103.36 23.43,89.97
             29.51,64.86 46.15,44.27 67.78,30.81
             79.83,23.31 95.31,17.92 109.50,22.15
             127.41,27.47 128.41,46.37 142.28,57.86
             149.16,63.57 157.51,64.46 165.94,66.41
             186.13,71.08 203.20,72.95 212.13,95.12
             218.39,110.62 213.06,132.06 205.69,146.35
             192.88,171.22 168.09,196.70 140.66,204.19
             133.11,206.25 126.10,206.66 118.34,206.55 Z" />
</svg>
