<?xml version="1.0" encoding="UTF-8" standalone="no"?>
<!DOCTYPE svg PUBLIC "-//W3C//DTD SVG 20010904//EN"
              "http://www.w3.org/TR/2001/REC-SVG-20010904/DTD/svg10.dtd">

<svg xmlns="http://www.w3.org/2000/svg"
     width="37.8472in" height="31.9306in"
     viewBox="0 0 2725 2299">
  <path id="Selection"
        fill="white"
        d="M 2264.57,569.06
           C 2264.57,569.06 2319.80,592.50 2319.80,592.50
             2319.80,592.50 2336.06,600.26 2336.06,600.26
             2336.06,600.26 2344.91,605.01 2344.91,605.01
             2372.93,619.24 2399.56,635.68 2425.18,653.92
             2575.43,760.91 2679.98,943.60 2698.48,1126.72
             2705.91,1200.35 2699.19,1280.14 2675.02,1350.33
             2675.02,1350.33 2666.62,1375.01 2666.62,1375.01
             2666.62,1375.01 2653.34,1406.31 2653.34,1406.31
             2653.34,1406.31 2647.81,1417.00 2647.81,1417.00
             2647.81,1417.00 2641.10,1430.44 2641.10,1430.44
             2609.35,1488.85 2573.03,1536.17 2522.79,1580.11
             2464.17,1631.38 2408.94,1657.47 2342.83,1696.01
             2278.31,1733.63 2215.50,1774.22 2154.26,1816.95
             2064.40,1879.64 1966.52,1959.43 1888.85,2036.71
             1888.85,2036.71 1821.16,2106.84 1821.16,2106.84
             1802.55,2127.08 1784.75,2147.82 1764.38,2166.38
             1728.90,2198.71 1688.26,2225.22 1644.44,2244.75
             1644.44,2244.75 1616.03,2255.60 1616.03,2255.60
             1501.36,2296.46 1370.75,2283.31 1256.19,2248.52
             1228.99,2240.25 1201.87,2231.75 1175.67,2220.67
             1175.67,2220.67 1159.63,2214.95 1159.63,2214.95
             1159.63,2214.95 1132.02,2203.23 1132.02,2203.23
             1132.02,2203.23 1118.60,2196.45 1118.60,2196.45
             1118.60,2196.45 1103.87,2190.20 1103.87,2190.20
             1103.87,2190.20 1085.85,2181.46 1085.85,2181.46
             1085.85,2181.46 1077.00,2176.72 1077.00,2176.72
             1077.00,2176.72 1052.90,2164.40 1052.90,2164.40
             1052.90,2164.40 967.28,2115.30 967.28,2115.30
             876.26,2058.81 786.80,1989.99 707.95,1917.51
             707.95,1917.51 645.07,1858.34 645.07,1858.34
             524.32,1739.87 415.97,1606.48 323.10,1465.16
             253.21,1358.79 191.96,1246.83 141.67,1129.91
             141.67,1129.91 105.27,1036.28 105.27,1036.28
             51.53,888.33 13.55,712.82 30.80,554.92
             34.98,516.67 41.27,480.26 51.57,443.15
             51.57,443.15 62.52,407.60 62.52,407.60
             62.52,407.60 65.59,398.04 65.59,398.04
             65.59,398.04 72.09,380.16 72.09,380.16
             97.77,317.63 126.02,268.15 169.89,216.35
             193.25,188.78 223.30,161.16 252.07,139.34
             409.61,19.88 610.13,3.90 797.23,48.73
             827.65,56.02 857.49,65.04 887.01,75.25
             887.01,75.25 913.53,84.42 913.53,84.42
             913.53,84.42 927.73,89.37 927.73,89.37
             927.73,89.37 933.25,91.71 933.25,91.71
             933.25,91.71 946.53,96.26 946.53,96.26
             946.53,96.26 958.50,101.34 958.50,101.34
             958.50,101.34 973.62,106.67 973.62,106.67
             973.62,106.67 1106.17,162.94 1106.17,162.94
             1106.17,162.94 1119.59,169.72 1119.59,169.72
             1119.59,169.72 1146.28,181.05 1146.28,181.05
             1146.28,181.05 1160.62,188.22 1160.62,188.22
             1160.62,188.22 1181.79,197.21 1181.79,197.21
             1181.79,197.21 1197.05,204.77 1197.05,204.77
             1197.05,204.77 1220.98,214.93 1220.98,214.93
             1220.98,214.93 1236.24,222.49 1236.24,222.49
             1236.24,222.49 1273.98,238.51 1273.98,238.51
             1273.98,238.51 1289.24,246.08 1289.24,246.08
             1289.24,246.08 1314.09,256.63 1314.09,256.63
             1314.09,256.63 1328.29,261.57 1328.29,261.57
             1328.29,261.57 1353.53,271.19 1353.53,271.19
             1353.53,271.19 1389.09,282.12 1389.09,282.12
             1389.09,282.12 1454.42,302.25 1454.42,302.25
             1454.42,302.25 1613.71,354.38 1613.71,354.38
             1613.71,354.38 1682.26,377.15 1682.26,377.15
             1682.26,377.15 1819.71,424.44 1819.71,424.44
             1819.71,424.44 1838.84,430.58 1838.84,430.58
             1927.64,461.30 2016.77,491.05 2106.45,519.28
             2106.45,519.28 2168.76,538.84 2168.76,538.84
             2168.76,538.84 2226.60,556.15 2226.60,556.15
             2226.60,556.15 2243.66,562.03 2243.66,562.03
             2243.66,562.03 2253.22,565.10 2253.22,565.10
             2257.77,566.97 2259.55,567.94 2264.57,569.06 Z" />
</svg>
