<?xml version="1.0" encoding="UTF-8" standalone="no"?>
<!DOCTYPE svg PUBLIC "-//W3C//DTD SVG 20010904//EN"
              "http://www.w3.org/TR/2001/REC-SVG-20010904/DTD/svg10.dtd">

<svg xmlns="http://www.w3.org/2000/svg"
     width="2.29167in" height="2.13889in"
     viewBox="0 0 165 154">
  <path id="Selection"
        fill="#E3000F" fill-opacity="0.3"
        d="M 83.57,149.65
           C 51.53,146.77 15.84,122.30 7.26,90.43
             4.38,79.76 4.96,67.31 7.55,56.63
             12.42,36.59 25.75,20.16 43.08,9.42
             52.73,3.44 65.13,-0.86 76.49,2.51
             90.84,6.76 91.64,21.84 102.75,31.01
             108.26,35.56 114.95,36.27 121.70,37.83
             137.87,41.56 151.54,43.05 158.70,60.74
             163.71,73.11 159.44,90.21 153.54,101.62
             143.28,121.46 123.42,141.79 101.45,147.77
             95.40,149.41 89.79,149.74 83.57,149.65 Z" />
</svg>
