<?xml version="1.0" encoding="UTF-8" standalone="no"?>
<!DOCTYPE svg PUBLIC "-//W3C//DTD SVG 20010904//EN"
              "http://www.w3.org/TR/2001/REC-SVG-20010904/DTD/svg10.dtd">

<svg xmlns="http://www.w3.org/2000/svg"
     width="7.75556in" height="1.14444in"
     viewBox="0 0 698 103">
  <path id="Imported Path"
        fill="white"
        d="M -202.00,183.00
           C -202.00,183.00 -152.00,146.80 -152.00,146.80
             -102.00,110.70 -2.00,38.30 98.00,14.20
             198.00,-10.00 298.00,14.00 398.00,36.70
             498.00,59.30 598.00,80.70 648.00,91.30
             648.00,91.30 698.00,102.00 698.00,102.00
             698.00,102.00 698.00,189.00 698.00,189.00
             698.00,189.00 648.00,189.00 648.00,189.00
             598.00,189.00 498.00,189.00 398.00,189.00
             298.00,189.00 198.00,189.00 98.00,189.00
             -2.00,189.00 -102.00,189.00 -152.00,189.00
             -152.00,189.00 -202.00,189.00 -202.00,189.00
             -202.00,189.00 -202.00,183.00 -202.00,183.00 Z" />
</svg>
